<?xml version="1.0" encoding="utf-8"?>
<!-- Generator: Adobe Illustrator 16.0.0, SVG Export Plug-In . SVG Version: 6.00 Build 0)  -->
<!DOCTYPE svg PUBLIC "-//W3C//DTD SVG 1.1//EN" "http://www.w3.org/Graphics/SVG/1.1/DTD/svg11.dtd">
<svg version="1.1" id="Layer_1" xmlns="http://www.w3.org/2000/svg" xmlns:xlink="http://www.w3.org/1999/xlink" x="0px" y="0px"
	 width="378px" height="94.366px" viewBox="0 0 378 94.366" enable-background="new 0 0 378 94.366" xml:space="preserve">
<polygon points="34.311,-0.09 34.311,6.11 67.706,39.313 67.706,33.44 "/>
<polygon points="34.311,10.681 34.311,16.882 67.706,50.083 67.706,44.211 "/>
<polygon points="34.311,21.431 34.311,27.633 67.706,60.834 67.706,54.96 "/>
<polygon fill="#C9252C" points="67.706,33.441 67.706,39.641 34.311,72.845 34.311,66.972 "/>
<polygon fill="#C9252C" points="67.706,44.212 67.706,50.413 34.311,83.615 34.311,77.742 "/>
<polygon fill="#C9252C" points="67.706,54.962 67.706,61.165 34.311,94.366 34.311,88.492 "/>
<polygon fill="#C9252C" points="34.311,-0.09 34.311,6.11 0.916,39.313 0.916,33.44 "/>
<polygon fill="#C9252C" points="34.311,10.681 34.311,16.882 0.916,50.083 0.916,44.211 "/>
<polygon fill="#C9252C" points="34.311,21.431 34.311,27.633 0.916,60.834 0.916,54.96 "/>
<polygon points="0.916,33.441 0.916,39.641 34.311,72.845 34.311,66.972 "/>
<polygon points="0.916,44.212 0.916,50.413 34.311,83.615 34.311,77.742 "/>
<polygon points="0.916,54.962 0.916,61.165 34.311,94.366 34.311,88.492 "/>
<path fill="#C9252C" d="M116.479,11.579h14.207L160.7,82.113h-16.107l-6.403-15.708h-29.616l-6.403,15.708H86.464L116.479,11.579z
	 M132.687,52.799l-9.305-22.711l-9.305,22.711H132.687z"/>
<polygon fill="#C9252C" points="167.817,12.081 184.423,12.081 202.833,41.693 221.243,12.081 237.851,12.081 237.851,82.114 
	222.542,82.114 222.542,36.392 202.833,66.305 202.433,66.305 182.923,36.692 182.923,82.114 167.817,82.114 "/>
<g>
	<defs>
		<rect id="SVGID_1_" x="-182.945" y="-184.666" width="728.5" height="515.91"/>
	</defs>
	<clipPath id="SVGID_2_">
		<use xlink:href="#SVGID_1_"  overflow="visible"/>
	</clipPath>
	<path clip-path="url(#SVGID_2_)" fill="#C9252C" d="M252.23,12.081h28.614c16.709,0,26.812,9.904,26.812,24.21v0.201
		c0,16.207-12.605,24.612-28.313,24.612h-11.706v21.01H252.23V12.081z M279.843,47.396c7.704,0,12.207-4.602,12.207-10.604v-0.201
		c0-6.905-4.803-10.606-12.507-10.606h-11.906v21.411H279.843z"/>
	<path clip-path="url(#SVGID_2_)" fill="#C9252C" d="M313.254,47.296v-0.201c0-19.909,15.008-36.216,36.518-36.216
		c13.207,0,21.109,4.401,27.613,10.805L367.58,32.99c-5.402-4.903-10.906-7.906-17.908-7.906c-11.807,0-20.311,9.807-20.311,21.813
		v0.198c0,12.006,8.303,22.011,20.311,22.011c8.004,0,12.906-3.2,18.408-8.204l9.805,9.905
		c-7.203,7.704-15.207,12.507-28.713,12.507C328.561,83.314,313.254,67.406,313.254,47.296"/>
	<path clip-path="url(#SVGID_2_)" d="M5.267,110.7h1.611l4.353,9.967H9.394l-1.003-2.39h-4.68l-1.017,2.39H0.912L5.267,110.7z
		 M7.753,116.735l-1.71-3.954l-1.696,3.954H7.753z"/>
	<path clip-path="url(#SVGID_2_)" d="M13.13,116.468v-5.694h1.738v5.625c0,1.837,0.948,2.813,2.502,2.813
		c1.542,0,2.488-0.921,2.488-2.744v-5.694h1.738v5.607c0,2.955-1.667,4.441-4.254,4.441C14.769,120.823,13.13,119.336,13.13,116.468
		"/>
	<path clip-path="url(#SVGID_2_)" d="M24.033,119.225l1.045-1.248c0.948,0.82,1.908,1.289,3.126,1.289
		c1.072,0,1.751-0.511,1.751-1.241v-0.033c0-0.704-0.396-1.086-2.232-1.511c-2.106-0.511-3.294-1.132-3.294-2.954v-0.028
		c0-1.694,1.413-2.867,3.379-2.867c1.441,0,2.585,0.438,3.588,1.242l-0.932,1.317c-0.891-0.669-1.782-1.022-2.686-1.022
		c-1.017,0-1.611,0.525-1.611,1.174v0.028c0,0.764,0.453,1.104,2.361,1.555c2.092,0.511,3.165,1.257,3.165,2.901v0.026
		c0,1.852-1.455,2.951-3.533,2.951C26.648,120.804,25.221,120.285,24.033,119.225"/>
	<polygon clip-path="url(#SVGID_2_)" points="36.676,112.385 33.539,112.385 33.539,110.774 41.567,110.774 41.567,112.385 
		38.428,112.385 38.428,120.666 36.676,120.666 	"/>
	<path clip-path="url(#SVGID_2_)" d="M44.115,110.773h4.41c1.243,0,2.219,0.364,2.854,0.986c0.522,0.538,0.819,1.275,0.819,2.135
		v0.028c0,1.625-0.976,2.601-2.345,2.997l2.67,3.747h-2.062l-2.431-3.448h-2.177v3.448h-1.738V110.773z M48.396,115.676
		c1.245,0,2.037-0.649,2.037-1.653v-0.026c0-1.064-0.764-1.645-2.051-1.645h-2.529v3.324H48.396z"/>
	<path clip-path="url(#SVGID_2_)" d="M58.551,110.7h1.611l4.353,9.967h-1.837l-1.003-2.39h-4.68l-1.017,2.39h-1.782L58.551,110.7z
		 M61.037,116.735l-1.71-3.954l-1.697,3.954H61.037z"/>
	<polygon clip-path="url(#SVGID_2_)" points="66.925,110.774 68.663,110.774 68.663,119.083 73.865,119.083 73.865,120.667 
		66.925,120.667 	"/>
	<rect x="76.486" y="110.774" clip-path="url(#SVGID_2_)" width="1.738" height="9.893"/>
	<path clip-path="url(#SVGID_2_)" d="M85.08,110.7h1.611l4.353,9.967h-1.837l-1.003-2.39h-4.68l-1.017,2.39h-1.782L85.08,110.7z
		 M87.566,116.735l-1.71-3.954l-1.696,3.954H87.566z"/>
	<polygon clip-path="url(#SVGID_2_)" points="93.454,110.774 95.065,110.774 100.364,117.615 100.364,110.774 102.074,110.774 
		102.074,120.667 100.619,120.667 95.164,113.627 95.164,120.667 93.454,120.667 	"/>
	<polygon clip-path="url(#SVGID_2_)" points="110.284,110.774 112.135,110.774 115.145,115.451 118.156,110.774 120.006,110.774 
		120.006,120.667 118.269,120.667 118.269,113.568 115.145,118.236 115.088,118.236 111.994,113.6 111.994,120.667 110.284,120.667 
			"/>
	<polygon clip-path="url(#SVGID_2_)" points="123.265,110.774 130.601,110.774 130.601,112.325 125.003,112.325 125.003,114.899 
		129.963,114.899 129.963,116.455 125.003,116.455 125.003,119.111 130.67,119.111 130.67,120.667 123.265,120.667 	"/>
	<path clip-path="url(#SVGID_2_)" d="M136.951,110.7h1.611l4.353,9.967h-1.837l-1.003-2.39h-4.68l-1.017,2.39h-1.782L136.951,110.7z
		 M139.437,116.735l-1.71-3.954l-1.696,3.954H139.437z"/>
	<polygon clip-path="url(#SVGID_2_)" points="146.482,112.385 143.346,112.385 143.346,110.774 151.372,110.774 151.372,112.385 
		148.234,112.385 148.234,120.666 146.482,120.666 	"/>
	<path clip-path="url(#SVGID_2_)" d="M158.872,110.774h3.899c2.321,0,3.761,1.312,3.761,3.305v0.028
		c0,2.219-1.781,3.379-3.956,3.379h-1.966v3.181h-1.738V110.774z M162.631,115.916c1.314,0,2.134-0.737,2.134-1.768v-0.027
		c0-1.16-0.834-1.768-2.134-1.768h-2.021v3.563H162.631z"/>
	<path clip-path="url(#SVGID_2_)" d="M169.028,110.773h4.41c1.243,0,2.219,0.364,2.854,0.986c0.522,0.538,0.819,1.275,0.819,2.135
		v0.028c0,1.625-0.976,2.601-2.345,2.997l2.67,3.747h-2.062l-2.431-3.448h-2.177v3.448h-1.738V110.773z M173.309,115.676
		c1.245,0,2.037-0.649,2.037-1.653v-0.026c0-1.064-0.764-1.645-2.051-1.645h-2.529v3.324H173.309z"/>
	<path clip-path="url(#SVGID_2_)" d="M179.519,115.746v-0.028c0-2.785,2.15-5.114,5.188-5.114s5.158,2.303,5.158,5.087v0.027
		c0,2.785-2.148,5.119-5.186,5.119C181.639,120.836,179.519,118.531,179.519,115.746 M188.042,115.746v-0.028
		c0-1.919-1.398-3.517-3.362-3.517c-1.966,0-3.338,1.565-3.338,3.489v0.027c0,1.925,1.399,3.508,3.365,3.508
		C186.669,119.225,188.042,117.669,188.042,115.746"/>
	<path clip-path="url(#SVGID_2_)" d="M192.245,115.746v-0.028c0-2.812,2.106-5.114,5.104-5.114c1.822,0,2.925,0.636,3.873,1.538
		l-1.118,1.289c-0.79-0.737-1.64-1.229-2.77-1.229c-1.88,0-3.266,1.552-3.266,3.489v0.027c0,1.938,1.372,3.508,3.266,3.508
		c1.215,0,1.993-0.482,2.84-1.274l1.117,1.132c-1.032,1.073-2.162,1.754-4.015,1.754
		C194.395,120.836,192.245,118.585,192.245,115.746"/>
	<polygon clip-path="url(#SVGID_2_)" points="203.829,110.774 211.165,110.774 211.165,112.325 205.567,112.325 205.567,114.899 
		210.527,114.899 210.527,116.455 205.567,116.455 205.567,119.111 211.234,119.111 211.234,120.667 203.829,120.667 	"/>
	<path clip-path="url(#SVGID_2_)" d="M213.344,119.225l1.045-1.248c0.948,0.82,1.908,1.289,3.126,1.289
		c1.072,0,1.751-0.511,1.751-1.241v-0.033c0-0.704-0.396-1.086-2.231-1.511c-2.106-0.511-3.294-1.132-3.294-2.954v-0.028
		c0-1.694,1.412-2.867,3.379-2.867c1.44,0,2.585,0.438,3.588,1.242l-0.933,1.317c-0.891-0.669-1.781-1.022-2.686-1.022
		c-1.017,0-1.611,0.525-1.611,1.174v0.028c0,0.764,0.453,1.104,2.361,1.555c2.092,0.511,3.165,1.257,3.165,2.901v0.026
		c0,1.852-1.455,2.951-3.533,2.951C215.959,120.804,214.533,120.285,213.344,119.225"/>
	<path clip-path="url(#SVGID_2_)" d="M222.96,119.225l1.045-1.248c0.948,0.82,1.908,1.289,3.126,1.289
		c1.072,0,1.751-0.511,1.751-1.241v-0.033c0-0.704-0.396-1.086-2.231-1.511c-2.106-0.511-3.294-1.132-3.294-2.954v-0.028
		c0-1.694,1.413-2.867,3.379-2.867c1.44,0,2.585,0.438,3.588,1.242l-0.932,1.317c-0.892-0.669-1.782-1.022-2.687-1.022
		c-1.017,0-1.611,0.525-1.611,1.174v0.028c0,0.764,0.453,1.104,2.361,1.555c2.092,0.511,3.165,1.257,3.165,2.901v0.026
		c0,1.852-1.455,2.951-3.533,2.951C225.576,120.804,224.149,120.285,222.96,119.225"/>
	<path clip-path="url(#SVGID_2_)" d="M232.946,115.746v-0.028c0-2.785,2.149-5.114,5.188-5.114s5.158,2.303,5.158,5.087v0.027
		c0,2.785-2.148,5.119-5.186,5.119C235.066,120.836,232.946,118.531,232.946,115.746 M241.468,115.746v-0.028
		c0-1.919-1.398-3.517-3.362-3.517c-1.966,0-3.338,1.565-3.338,3.489v0.027c0,1.925,1.399,3.508,3.365,3.508
		C240.096,119.225,241.468,117.669,241.468,115.746"/>
	<path clip-path="url(#SVGID_2_)" d="M246.111,110.773h4.41c1.243,0,2.219,0.364,2.854,0.986c0.521,0.538,0.818,1.275,0.818,2.135
		v0.028c0,1.625-0.976,2.601-2.345,2.997l2.67,3.747h-2.062l-2.432-3.448h-2.177v3.448h-1.738V110.773z M250.392,115.676
		c1.245,0,2.037-0.649,2.037-1.653v-0.026c0-1.064-0.764-1.645-2.051-1.645h-2.529v3.324H250.392z"/>
	<path clip-path="url(#SVGID_2_)" d="M261.553,115.746v-0.028c0-2.812,2.105-5.114,5.103-5.114c1.823,0,2.925,0.636,3.874,1.538
		l-1.119,1.289c-0.79-0.737-1.639-1.229-2.769-1.229c-1.88,0-3.266,1.552-3.266,3.489v0.027c0,1.938,1.372,3.508,3.266,3.508
		c1.215,0,1.993-0.482,2.84-1.274l1.117,1.132c-1.032,1.073-2.162,1.754-4.015,1.754
		C263.703,120.836,261.553,118.585,261.553,115.746"/>
	<path clip-path="url(#SVGID_2_)" d="M272.413,115.746v-0.028c0-2.785,2.15-5.114,5.188-5.114c3.038,0,5.158,2.303,5.158,5.087
		v0.027c0,2.785-2.147,5.119-5.186,5.119C274.533,120.836,272.413,118.531,272.413,115.746 M280.936,115.746v-0.028
		c0-1.919-1.399-3.517-3.363-3.517c-1.965,0-3.337,1.565-3.337,3.489v0.027c0,1.925,1.398,3.508,3.364,3.508
		C279.564,119.225,280.936,117.669,280.936,115.746"/>
	<path clip-path="url(#SVGID_2_)" d="M285.581,110.773h4.41c1.243,0,2.219,0.364,2.854,0.986c0.522,0.538,0.819,1.275,0.819,2.135
		v0.028c0,1.625-0.976,2.601-2.345,2.997l2.67,3.747h-2.063l-2.431-3.448h-2.177v3.448h-1.738V110.773z M289.862,115.676
		c1.245,0,2.037-0.649,2.037-1.653v-0.026c0-1.064-0.765-1.645-2.052-1.645h-2.528v3.324H289.862z"/>
	<path clip-path="url(#SVGID_2_)" d="M296.511,110.774h3.898c2.321,0,3.761,1.312,3.761,3.305v0.028c0,2.219-1.78,3.379-3.959,3.379
		h-1.963v3.181h-1.737V110.774z M300.27,115.916c1.313,0,2.134-0.737,2.134-1.768v-0.027c0-1.16-0.834-1.768-2.134-1.768h-2.021
		v3.563H300.27z"/>
	<path clip-path="url(#SVGID_2_)" d="M306.227,115.746v-0.028c0-2.785,2.15-5.114,5.188-5.114c3.039,0,5.158,2.303,5.158,5.087
		v0.027c0,2.785-2.148,5.119-5.186,5.119C308.346,120.836,306.227,118.531,306.227,115.746 M314.75,115.746v-0.028
		c0-1.919-1.398-3.517-3.363-3.517s-3.338,1.565-3.338,3.489v0.027c0,1.925,1.4,3.508,3.365,3.508
		C313.377,119.225,314.75,117.669,314.75,115.746"/>
	<path clip-path="url(#SVGID_2_)" d="M319.393,110.773h4.41c1.242,0,2.219,0.364,2.854,0.986c0.521,0.538,0.818,1.275,0.818,2.135
		v0.028c0,1.625-0.975,2.601-2.344,2.997l2.67,3.747h-2.063l-2.432-3.448h-2.176v3.448h-1.738V110.773z M323.674,115.676
		c1.244,0,2.037-0.649,2.037-1.653v-0.026c0-1.064-0.764-1.645-2.051-1.645h-2.529v3.324H323.674z"/>
	<path clip-path="url(#SVGID_2_)" d="M333.83,110.7h1.611l4.354,9.967h-1.838l-1.002-2.39h-4.68l-1.018,2.39h-1.783L333.83,110.7z
		 M336.316,116.735l-1.709-3.954l-1.697,3.954H336.316z"/>
	<polygon clip-path="url(#SVGID_2_)" points="343.359,112.385 340.223,112.385 340.223,110.774 348.248,110.774 348.248,112.385 
		345.111,112.385 345.111,120.666 343.359,120.666 	"/>
	<rect x="350.9" y="110.774" clip-path="url(#SVGID_2_)" width="1.738" height="9.893"/>
	<path clip-path="url(#SVGID_2_)" d="M355.553,115.746v-0.028c0-2.785,2.148-5.114,5.188-5.114c3.037,0,5.158,2.303,5.158,5.087
		v0.027c0,2.785-2.148,5.119-5.188,5.119S355.553,118.531,355.553,115.746 M364.074,115.746v-0.028c0-1.919-1.398-3.517-3.363-3.517
		s-3.336,1.565-3.336,3.489v0.027c0,1.925,1.398,3.508,3.365,3.508C362.703,119.225,364.074,117.669,364.074,115.746"/>
	<polygon clip-path="url(#SVGID_2_)" points="368.717,110.774 370.328,110.774 375.627,117.615 375.627,110.774 377.338,110.774 
		377.338,120.667 375.883,120.667 370.428,113.627 370.428,120.667 368.717,120.667 	"/>
</g>
</svg>
