<?xml version="1.0" encoding="utf-8"?>
<!-- Generator: Adobe Illustrator 16.0.0, SVG Export Plug-In . SVG Version: 6.00 Build 0)  -->
<!DOCTYPE svg PUBLIC "-//W3C//DTD SVG 1.1//EN" "http://www.w3.org/Graphics/SVG/1.1/DTD/svg11.dtd">
<svg version="1.1" id="Layer_1" xmlns="http://www.w3.org/2000/svg" xmlns:xlink="http://www.w3.org/1999/xlink" x="0px" y="0px"
	 width="191px" height="196.501px" viewBox="0 0 191 196.501" enable-background="new 0 0 191 196.501" xml:space="preserve">
<polygon points="95.612,0.845 95.612,9.536 142.428,56.085 142.428,47.853 "/>
<polygon points="95.612,15.945 95.612,24.638 142.428,71.184 142.428,62.951 "/>
<polygon points="95.612,31.016 95.612,39.71 142.428,86.255 142.428,78.021 "/>
<polygon fill="#C9252C" points="142.428,47.853 142.428,56.543 95.613,103.092 95.613,94.859 "/>
<polygon fill="#C9252C" points="142.428,62.952 142.428,71.646 95.613,118.191 95.613,109.958 "/>
<polygon fill="#C9252C" points="142.428,78.023 142.428,86.718 95.613,133.263 95.613,125.027 "/>
<polygon fill="#C9252C" points="95.612,0.845 95.612,9.536 48.796,56.085 48.796,47.853 "/>
<polygon fill="#C9252C" points="95.612,15.945 95.612,24.638 48.796,71.184 48.796,62.951 "/>
<polygon fill="#C9252C" points="95.612,31.016 95.612,39.71 48.796,86.255 48.796,78.021 "/>
<polygon points="48.796,47.853 48.796,56.543 95.612,103.092 95.612,94.859 "/>
<polygon points="48.796,62.952 48.796,71.646 95.612,118.191 95.612,109.958 "/>
<polygon points="48.796,78.023 48.796,86.718 95.612,133.263 95.612,125.027 "/>
<path fill="#C9252C" d="M19.808,149.383h9.309l19.665,46.214H38.229l-4.196-10.292H14.629l-4.195,10.292H0.143L19.808,149.383z
	 M30.428,176.39l-6.097-14.88l-6.096,14.88H30.428z"/>
<polygon fill="#C9252C" points="53.445,149.711 64.326,149.711 76.388,169.113 88.449,149.711 99.332,149.711 99.332,195.596 
	89.301,195.596 89.301,165.639 76.388,185.239 76.126,185.239 63.343,165.837 63.343,195.596 53.445,195.596 "/>
<g>
	<defs>
		<rect id="SVGID_1_" x="-205.617" y="-82.014" width="595.277" height="391"/>
	</defs>
	<clipPath id="SVGID_2_">
		<use xlink:href="#SVGID_1_"  overflow="visible"/>
	</clipPath>
	<path clip-path="url(#SVGID_2_)" fill="#C9252C" d="M108.752,149.711H127.5c10.947,0,17.567,6.489,17.567,15.863v0.131
		c0,10.619-8.259,16.126-18.552,16.126h-7.669v13.765h-10.095V149.711z M126.844,172.85c5.047,0,7.998-3.015,7.998-6.947v-0.132
		c0-4.523-3.146-6.949-8.193-6.949h-7.802v14.028H126.844z"/>
	<path clip-path="url(#SVGID_2_)" fill="#C9252C" d="M148.735,172.784v-0.131c0-13.045,9.833-23.729,23.927-23.729
		c8.653,0,13.831,2.885,18.092,7.079l-6.424,7.408c-3.54-3.213-7.146-5.18-11.734-5.18c-7.734,0-13.307,6.425-13.307,14.292v0.13
		c0,7.866,5.44,14.421,13.307,14.421c5.244,0,8.457-2.097,12.063-5.375l6.424,6.489c-4.72,5.048-9.964,8.194-18.814,8.194
		C158.764,196.383,148.735,185.96,148.735,172.784"/>
</g>
</svg>
