<?xml version="1.0" encoding="utf-8"?>
<!-- Generator: Adobe Illustrator 16.0.0, SVG Export Plug-In . SVG Version: 6.00 Build 0)  -->
<!DOCTYPE svg PUBLIC "-//W3C//DTD SVG 1.1//EN" "http://www.w3.org/Graphics/SVG/1.1/DTD/svg11.dtd">
<svg version="1.1" id="Layer_1" xmlns="http://www.w3.org/2000/svg" xmlns:xlink="http://www.w3.org/1999/xlink" x="0px" y="0px"
	 width="120.244px" height="39.992px" viewBox="0 0 120.244 39.992" enable-background="new 0 0 120.244 39.992"
	 xml:space="preserve">
<g>
	<rect fill="#FFFFFF" width="120" height="40"/>
	<g>
		<g>
			<g>
				<g>
					<path fill="#96BB54" d="M120.188-0.174c-0.088-0.478-0.028,0.161-0.018,0.748L120.188-0.174z"/>
					<path fill="#96BB54" d="M120.169,0.574l-0.014,0.529C120.17,0.962,120.172,0.774,120.169,0.574z"/>
					<path fill="#96BB54" d="M120.108,5.502c-0.069-1.134,0.027-2.484-0.081-3.192C119.963,3.453,119.99,5.219,120.108,5.502z"/>
					<polygon fill="#96BB54" points="120.177,3.8 120.119,3.657 120.21,4.651 					"/>
					<polygon fill="#96BB54" points="120.231,3.09 120.209,3.232 120.27,4.786 					"/>
					<path fill="#96BB54" d="M120.066,9.336L120.049,8.2c0.08-1.064,0.107,0.703,0.162-0.008c-0.001-1.418-0.167-0.488-0.141-2.262
						c-0.075,0.142,0.001,2.838-0.117,2.553C119.916,9.973,120.023,8.555,120.066,9.336z"/>
					<path fill="#96BB54" d="M82.5,40.452c-0.06-0.004-0.108-0.007-0.161-0.011C82.402,40.454,82.467,40.462,82.5,40.452z"/>
					<path fill="#96BB54" d="M63.766,40.535c-0.26-0.008-0.517-0.016-0.766-0.024c0.077,0.012,0.174,0.023,0.303,0.032
						L63.766,40.535z"/>
					<path fill="#96BB54" d="M94.229,40.23c0.271,0.01,0.517,0.02,0.74,0.029C94.829,40.242,94.609,40.23,94.229,40.23z"/>
					<path fill="#96BB54" d="M-0.034,15.117c0.008,0.045,0.02,0.083,0.035,0.098c0-0.007,0.001-0.021,0.002-0.034l-0.032-0.207
						L-0.034,15.117z"/>
					<path fill="#96BB54" d="M42.787,40.719c-0.295,0.004-0.584,0.008-0.845,0.012C42.433,40.733,42.671,40.728,42.787,40.719z"/>
					<path fill="#96BB54" d="M100.988,40.22c-0.103,0-0.193,0-0.282,0c0.09,0.003,0.212,0.007,0.348,0.012l-0.052-0.011
						C100.997,40.22,100.997,40.22,100.988,40.22z"/>
					<path fill="#96BB54" d="M69.883,40.695c-0.255-0.005-0.484-0.01-0.679-0.015C69.438,40.686,69.663,40.69,69.883,40.695z"/>
					<path fill="#96BB54" d="M119.934,26.708c-0.011,0.321-0.003,0.588,0.01,0.826C119.962,27.33,119.965,27.069,119.934,26.708z"/>
					<path fill="#96BB54" d="M119.946,33.411l-0.001-0.04C119.931,33.411,119.935,33.43,119.946,33.411z"/>
					<path fill="#96BB54" d="M119.936,37.694l-0.003-0.076C119.922,37.667,119.92,37.694,119.936,37.694z"/>
					<path fill="#96BB54" d="M119.944,27.535c-0.046,0.555-0.197,0.721-0.032,1.437l0.022-0.143
						c-0.038,0.43,0.027,1.065,0.032,1.563c0.016-0.051,0.029-0.11,0.04-0.181c0.004-0.25,0.009-0.581,0.018-1.091
						C120.058,28.514,119.98,28.121,119.944,27.535z"/>
					<path fill="#96BB54" d="M82.571,40.421C82.635,40.452,83.085,40.437,82.571,40.421L82.571,40.421z"/>
					<path fill="#96BB54" d="M88.345,40.298c-0.188-0.002-0.375-0.003-0.568-0.005C87.958,40.299,88.139,40.305,88.345,40.298z"/>
					<path fill="#96BB54" d="M110.11,40.341c-0.038-0.002-0.068-0.004-0.104-0.006C109.976,40.352,110.06,40.349,110.11,40.341z"/>
					<path fill="#96BB54" d="M87.253,40.292l0.523,0.001C87.615,40.288,87.448,40.283,87.253,40.292z"/>
					<path fill="#96BB54" d="M103.575,40.252c-0.031-0.001-0.063-0.003-0.089-0.004C103.506,40.249,103.539,40.25,103.575,40.252z"
						/>
					<path fill="#96BB54" d="M73.964,0.541c-0.439,0.014-0.696-0.029-1.11-0.042c-0.928,0.109,1.915,0.003,0.568,0.1
						c0.412-0.001,0.736-0.015,1.038-0.031l-0.587-0.102C73.062,0.505,74.417,0.5,73.964,0.541z"/>
					<path fill="#96BB54" d="M0.181,9.679L0.171,9.866c0.047-0.128,0.061-0.012,0.086-0.73C0.186,8.524,0.079,9.478,0,8.408
						c0.008,0.207,0.004,0.515-0.005,0.806C0.059,8.775,0.125,9.208,0.181,9.679z"/>
					<path fill="#96BB54" d="M-0.005,9.214c-0.002,0.012-0.003,0.019-0.005,0.031c-0.008,0.051-0.017,0.102-0.025,0.156
						C-0.04,9.554-0.044,9.703-0.047,9.827C-0.029,9.711-0.014,9.478-0.005,9.214z"/>
					<path fill="#96BB54" d="M59.435,0.496c-0.18-0.004-0.341-0.007-0.488-0.01C59.185,0.505,59.327,0.505,59.435,0.496z"/>
					<path fill="#96BB54" d="M44.136,39.412c0.211-0.012,0.418-0.023,0.586-0.032C44.399,39.385,44.238,39.397,44.136,39.412z"/>
					<path fill="#96BB54" d="M0.079,20.019c-0.005,0.166-0.011,0.335-0.016,0.518c0.001,0.108,0.003,0.198,0.005,0.327L0.079,20.019
						z"/>
					<path fill="#96BB54" d="M14.047-0.861c-0.369,0.116,0.283-0.01,1.019,0.058l0.684-0.063
						C15.123-0.883,14.544-0.864,14.047-0.861z"/>
					<path fill="#96BB54" d="M74.505,0.575c0-0.003,0-0.007,0.007-0.01c-0.018,0.001-0.03,0.001-0.052,0.002L74.505,0.575z"/>
					<path fill="#96BB54" d="M34.296-0.886c0.116,0.005,0.22,0.01,0.33,0.016C34.56-0.877,34.457-0.883,34.296-0.886z"/>
					<path fill="#96BB54" d="M-0.055,13.271l-0.007,2.606l0.029-0.76C-0.091,14.755,0.015,13.632-0.055,13.271z"/>
					<path fill="#96BB54" d="M2.931-0.929L2.699-1C2.227-0.973,1.742-0.958,1.253-0.95C0.507-0.947-0.244-0.945-0.991-0.943
						C-0.994,0.179-0.997,1.289-1,2.333c0.006,0.799,0.03,1.547,0.098,2.204c-0.249,3.159,0.223,2.071,0,4.967l0.036-0.098
						c-0.042,9.523-0.172,19.625-0.052,28.527l-0.05-0.019c-0.003,0.95-0.007,1.899-0.011,2.834
						c13.885,0.003,27.437,0.006,41.22,0.009c1.327-0.046,0.526-0.156,1.67-0.211c0.497,0.004,1.619-0.002,1.625,0.06
						c-0.962,0.034-0.42,0.088-0.749,0.112c1.599-0.006,3.665,0.064,5.09-0.011l-1.194-0.079c0.555-0.033,1.426-0.011,1.929-0.007
						c-0.212,0.04,0.518,0.126,0.084,0.146c3.011-0.197,2.349,0.084,4.883,0.007c0.505-0.168,3.678-0.306,5.768-0.426l1.097,0.044
						c-1.458-0.001,0.027,0.123-1.781,0.114c1.51,0.048,2.91-0.023,4.337,0.003c-0.277-0.042-0.207-0.098,0.367-0.116
						c0.877,0.023,0.954,0.107,1.956,0.116l-0.989,0.053c0.666,0.063,1.24-0.021,1.858-0.03c0.201,0.07,1.697,0.083,1.432,0.161
						c1.349-0.096,1.826-0.042,3.277-0.103c-1.51-0.074,0.388-0.093,0.219-0.151l-1.702,0.028c2.399,0.047-0.78,0.012-0.6,0.132
						c-1.128-0.055,1.548-0.197-0.341-0.178c2.257-0.061,2.735-0.008,5.043-0.107c-1.394,0.022,0.266-0.078-0.482-0.114
						c1.768-0.004,0.439,0.042,0.985,0.119c0.962-0.003,1.316,0.065,2.202-0.023c1.561,0.036-0.234,0.09,0.555,0.138
						c-0.577,0.083-4.341-0.102-3.916,0.162c-0.814,0.003-1.807,0.104-2.98,0.099c1.024,0.034,2.488,0.121,3.754,0.061l0.064-0.148
						c0.961-0.004,1.159-0.104,1.852-0.091c-0.368,0.042,0.296,0.105,1.07,0.093c-0.22-0.021-0.529-0.017-0.444-0.042
						c1.432-0.011,1.63-0.112,3.335-0.14c-1.406-0.039-1.697-0.083-3.013-0.147c0.354-0.104,0.927-0.016,1.702-0.028
						c-0.116,0.014-0.277,0.017-0.05,0.038l0.824-0.05c1.755,0.045-0.218,0.151,1.227,0.201c0.999,0.087,1.369-0.049,2.135,0
						c-0.052-0.009-0.105-0.019-0.149-0.026c0.169,0.003,0.291,0.005,0.381,0.007c-0.006-0.002-0.013-0.004-0.013-0.007
						c0.93-0.015,1.929-0.007,2.193-0.085c0.098,0.036,0.814-0.01,1.118-0.034c0.519-0.031,1.76-0.123,2.534,0.002l-0.058,0.001
						c1.16,0.015,2.063,0.054,1.813,0.096l1.871,0.031l-0.201,0.101c1.704-0.027,1.535-0.086,2.703-0.19
						c1.221,0.06,3.355,0.011,4.162-0.026c0.136,0,0.34,0,0.679-0.001l-0.711-0.04c1.33,0.004,1.168-0.049,2.046-0.049
						c-0.182-0.01-0.208-0.015,0.282,0c0.148,0.002,0.31,0.005,0.504,0.008c-0.044,0.011-0.241,0.009-0.438,0.003l0.161,0.034
						c1.063,0.107,1.631-0.061,2.768-0.023c-0.109,0.002-0.292,0.007-0.407,0.01c0.639,0.027,1.556,0.17,1.821,0.083
						c0.147,0.011,0.373-0.006,0.592-0.028l0.47,0.015c-0.192-0.006-0.34-0.011-0.464-0.016c0.292-0.029,0.569-0.065,0.606-0.043
						l1.633,0.018c0.31,0.015,0.729,0.002,1.07-0.012l0.277,0.042c0.595-0.006,0.6,0.019,0.529,0.03
						c2.066,0.146,3.194-0.074,5.427,0.052c0.426-0.07-0.497-0.102-0.568-0.139c0.349-0.054,1.625-0.102,2.265-0.141
						c0.325,0.032,0.871,0.063,1.438,0.094c0.676,0.036,1.376,0.073,1.886,0.1c0.038-0.593,0.08-0.979,0.128-0.706
						c0.011-2.21-0.086,0.602-0.134-0.5l0.006-0.211c-0.01,0.255-0.019,0.492-0.027,0.715c-0.015,0.227-0.029,0.437-0.042,0.632
						c-0.193-0.018-0.367-0.034-0.528-0.048c-0.073-0.027,0.123-0.046,0.419-0.06c-0.006-0.281-0.015-0.647-0.023-0.992
						c0.003-0.299,0.005-0.576,0.007-0.739l0.107,0.348c-0.038-1.697-0.199-1.343-0.307-2.399c0.042-1.351,0.14-0.573,0.236-0.859
						l-0.027-1.419h0.081c-0.021-0.921-0.097-1.136-0.065-2.413c0.076,0.923,0.075-1.915,0.177-0.639
						c0.027-0.708-0.128-0.914-0.021-1.276c-0.086-0.492-0.042,0.636-0.07,0.994c-0.124,0.29-0.059-1.557-0.091-2.408
						c0.064-0.072,0.075,0.568,0.118-0.434c-0.049-0.206-0.086-0.842-0.027-1.411c-0.081,0-0.017-1.136-0.012-1.704
						c-0.016,0.639-0.075,1.562-0.144,1.144c-0.032-0.497-0.048-0.925-0.038-2.058l-0.038,0.78c-0.118-0.99,0.085-1.634,0.048-2.981
						c0.048,0.568,0.048,0.923,0.107,1.418c-0.03-0.643-0.087-1.851-0.134-2.837l0.117-1.136c-0.059-0.141,0.005-1.277-0.075-1.277
						c0.054-1.414,0.097,1.136,0.156,1.277c0.053-1.774-0.134-1.42-0.011-3.122l0.075,0.565c0.005-0.565-0.038-1.702,0-1.772
						c-0.027,0-0.017,0.285-0.017,0.639c-0.161-0.348-0.112-2.618-0.279-2.407l-0.011,0.782c-0.032-1.199-0.145-2.053-0.086-2.975
						c0.053-0.709,0.112,0.497,0.156,0.917c0.011-1.129-0.183-0.917-0.167-2.265c-0.026,0.708-0.086,0.573-0.128,0.148
						c-0.011,0.78-0.043,2.408,0.027,2.122l0.016-0.282c0.043,0.071,0.059,0.497,0.081,0.708c0,1.066-0.075,0.497-0.107,0.71
						c-0.026,1.773,0.166,0.144,0.161,1.768l-0.032,0.212c0.043,0.781,0.049,1.987,0.151,2.201c-0.108,0.71,0.042,1.839-0.021,2.618
						c-0.236,0.148,0.016-2.76-0.113-3.683c-0.048,0.851-0.113-0.488-0.167-0.844l0.103,2.688c-0.032,0.214-0.15,1.001-0.064,1.49
						l0.006-0.211c0.026,1.066,0.124,0.779,0.091,1.702c-0.021,0.143-0.059-0.141-0.075-0.211c-0.022,0.851,0.054,0.708,0.075,1.276
						c-0.021,0.851-0.097-0.426-0.123,0.285c0.091,0.986-0.021,1.56-0.016,2.415c0.134-0.364,0.183,3.396,0.301,1.552l0.091,2.051
						c-0.07,0.639-0.188-1.411-0.301-0.844l0.005-1.633c-0.167,0.27,0.109,3.42-0.078,4.503c-0.007,0.872,0.017,0.658-0.066,2.31
						l0.149-0.283c-0.034,0.856-0.116,1.134-0.143,1.173c0.009,0.502,0.006,0.954-0.001,1.42c-0.022-0.123-0.042-0.297-0.05-0.601
						c-0.083,0.645-0.051,0.832-0.007,1.057c0.038,0.348,0.032,0.877,0.031,1.414l-0.056-0.483c0.013,0.327,0.029,0.729,0.056,0.765
						c0.004,0.222,0.009,0.431,0.013,0.635c0.026-0.144,0.113-0.498,0.152-1.265c-0.027,1.271-0.049,2.342-0.071,3.408
						c-0.452-0.026-0.899-0.051-1.374-0.078c0.064-0.043,0.774-0.097,0.561-0.102c-0.851-0.022-1.774,0.053-1.697,0.118
						c-0.193,0.002-0.34,0.004-0.47,0.006c-0.162-0.037-0.362-0.076-0.766-0.083c-0.093-0.013-0.246-0.025-0.537-0.03
						c-0.285,0.118-1.916,0.059-2.27,0.113c0.385,0.012,0.856,0.011,1.334,0.007c-0.685,0.079-1.297,0.169-1.826,0.105
						c1.271-0.075-1.355-0.123,0.56-0.155c-1.347-0.15-0.702,0.107-2.127,0.054l-0.922-0.059c0.14-0.086,1.491-0.043,1.276-0.076
						l-0.639,0.011c0.639-0.065,3.052-0.022,4.537-0.119l-2.98-0.048c-3.755,0.103-8.439-0.015-11.626,0.173l0.135-0.002
						c-0.056,0.009-0.082,0.024-0.127,0.057l-0.144-0.021l-0.63,0.065c-0.717-0.081-2.059-0.096-3.201-0.16
						c0.717,0.053,0.717,0.053,0.788,0.117c-0.143,0.086-0.253,0.123-1.318,0.091c-0.011-0.061,0.646-0.06-0.14-0.108
						c0.406,0.03,0.044,0.073-0.42,0.081c-0.6-0.04-1.599-0.048-1.612-0.109c0.277-0.017,0.501,0.004,0.689,0.013
						c0.277-0.016-1.128-0.055-0.304-0.105l-1.083,0.017c-0.632-0.051,0.42-0.08,0.168-0.113c-1.802,0.042-2.724,0.183-4.354,0.224
						c0.077-0.033,0.094-0.169,0.077-0.129c-1.254-0.041-2.69,0.148-4.118,0.159c0.21-0.041,0.744-0.024,1.176-0.044
						c-4.367-0.052-7.942-0.054-12.038-0.184l-1.065,0.14l-1.07-0.093c-4.311-0.09-7.618,0.001-11.716,0.043
						c-1.276,0.009-0.766-0.098-1.367-0.137c-2.801-0.016-3.484,0.142-6.153,0.174c0.368-0.043,0.993-0.164-0.156-0.169
						c-0.214,0.04-0.354,0.104-1.08,0.079l0.368-0.043c-0.663-0.063-1.303-0.003-2.676-0.03c-2.426,0.003-4.741,0.103-6.736,0.257
						c-2.145-0.015,0.223-0.151-0.185-0.182c1.513,0.052,1.052-0.024,1.38-0.073c-0.801,0.04-1.769,0.064-2.181-0.037
						c-1.115,0.006-1.619,0.002-2.722,0.069c0.555-0.034,1.031,0.02,0.511,0.065c-0.912-0.035-3.234,0.003-3.105-0.122
						c-5.283,0.001-11.193,0.003-16.851,0.004c-0.954,0.064,0.725,0.025,0.2,0.071c-1.387,0.084-1.096-0.044-2.206,0.023
						l0.458-0.068c-1.652-0.01-3.406,0.116-5.006,0.179c0.266-0.078-1.314-0.064,0.015-0.11c-0.782,0.013-1.732-0.334-2.336-0.264
						l0.881,0.324c-0.043,0.032-1.14,0.012-1.031,0.033c-0.684-0.063-1.522-0.139-1.995-0.139c-0.23-0.082,0.958-0.064,1.608-0.063
						c0.098-0.136-2.193-0.087-1.25-0.212c-1.395,0.022,0.198,0.07-0.636,0.121l-1.217-0.029l0.939,0.046
						c-1.016,0.041-1.364,0.145-2.72,0.068l-1.406,0.134c-0.143-0.108-1.027-0.02-1.75-0.045l0.453-0.068
						c-0.962,0.003-1.334-0.015-1.936-0.055c0.542-0.095,0.871,0.022,1.103-0.067l-1.056-0.032c0.004,0.062-0.668,0.109,0.089,0.146
						c-0.532,0.049-0.46,0.095-0.734,0.13c-0.012-0.05-0.022-0.112-0.032-0.189c-0.009-0.074-0.017-0.142-0.023-0.406
						c-0.012-0.442-0.018-0.986-0.015-1.687c0.104-1.11,0.092,1.194,0.196,0.733c0.044-2.552-0.271-3.119-0.259-4.611
						c0.043-1.901-0.054-1.792-0.061-3.721c0.071,0.613,0.077-1.349,0.144-1.703l0.074,0.761c-0.022-0.586,0.005-1.149,0.058-0.976
						c-0.096,0.109-0.09-2.501-0.136-3.83l-0.083,0.232c-0.027-1.039-0.079-2.479-0.058-3.58c-0.026-1.639-0.099-1.266-0.189-2.529
						c0.074-0.698,0.162-0.621,0.251-0.389c-0.042,0.438-0.017,1.181-0.042,1.903c0.071,2.072,0.244,3.683,0.204,5.749
						c0.199,0.896-0.023-1.395,0.047-2.398c0.012,0.03,0.016,0.103,0.018,0.179c0.002-0.089,0.004-0.167,0.006-0.252
						c0.024,0.741,0.056,1.948,0.157,2.149c-0.02-1.24-0.198-0.898-0.113-2.438c-0.056-1.142,0.101-2.072,0.115-2.762
						c-0.075-0.76-0.234-0.792-0.204-2.664l0.112,0.819c0.002-2.117-0.164-0.993-0.158-2.954c-0.013,0.689-0.109-0.666-0.113,0.644
						c-0.059-0.644-0.071-2.071-0.039-3.136c-0.017-0.277-0.038-0.058-0.076-0.109c-0.077,1.179,0.076,1.863-0.036,2.831L0.124,16
						c-0.043,1.096-0.14,1.208-0.188,0.537c0.005,0.309,0.022,0.58,0.001,0.806c-0.181,0.187,0.064-1.316-0.089-1.696l0.013,0.774
						c-0.117,0.335-0.103-1.808-0.095-2.806c0.055-1.129,0.075-2.162,0.161-2.239l0.036,1.516c0.068-0.786-0.04-1.936-0.036-2.818
						c0.011-0.058,0.02-0.143,0.026-0.246c-0.008,0.045-0.015,0.071-0.023,0.071c0.004-0.187,0.015-0.354,0.035-0.497
						c0.004-0.774-0.047-1.91-0.02-2.631l-0.076,0.089l0.043,0.098c-0.003,0.708-0.05,1.67-0.106,1.134
						c-0.053-1.598,0.093-1.921,0.16-2.302C0.08,6.157-0.038,7.35,0.002,8.163c0.115-0.49,0.012-1.626,0.088-3.277
						C0.217,5.543,0.089,6.8,0.205,7.164c0.022-1.331-0.068-1.678-0.036-3.078c0.058,0.179,0.064,1.542,0.139,1.453L0.345,4.64
						c0.007,2.207,0.157-0.386,0.188,1.334c0.052-0.812-0.103-1.134-0.023-2.289c-0.055,0.322-0.155,1.245-0.205,0.14l0.037-1.25
						c0.061-0.522,0.135,1.303,0.186,0.49L0.485,1.757C0.447,1.802,0.428,2.428,0.376,2.035c0.041-0.703-0.145-1.42-0.201-1.77
						l0-0.041c0.185,0.005,0.35,0.009,0.486,0.013c0.247,0.008,0.439,0.021,0.559,0.042c1.786-0.112,4.051-0.108,5.697-0.214
						C5.795,0.141,6.963,0.194,7.635,0.251c-1.293,0.016-1.302,0.134-1.213,0.21c0.787-0.013,1.302-0.135,0.905-0.174
						c1.314,0.048,0.907-0.082,2.062-0.002c0.748,0.041-0.375,0.116-0.116,0.161c1.42,0.005,0.386-0.144,1.929-0.116
						c-0.084,0.016-0.225,0.021-0.103,0.042c0.833,0.025,1.729-0.03,1.908-0.089c0.885,0.154,2.498-0.017,2.323,0.133
						c2.014-0.04-0.3-0.082,0.098-0.134c0.824-0.066,2.349-0.012,2.825,0.012c-0.497,0.003-0.953,0.044-1.432,0.021l0.425,0.104
						c2.505,0.074,1.589-0.235,4.009-0.146c-1.247,0.054-0.415,0.079-1.033,0.152c0.375-0.026,2.27,0.003,1.124-0.076
						c0.907,0.019,1.538,0.033,2.167,0.046c0.807-0.04,1.683-0.069,2.153-0.137c1.272,0.011,2.214,0.085,2.822,0.13
						c2.676-0.075,5.147,0.053,7.966-0.027l-0.208-0.006c2.188,0.019-0.968-0.138,1.305-0.135c-0.304,0.127,1.361,0.086,2.096,0.154
						c2.788,0.065,4.82-0.093,7.387-0.008c-0.021,0.027-0.187,0.059-0.684,0.062c1.96,0.04,3.541,0.014,5.309,0.021L51.58,0.466
						c2.833,0.104,5.406-0.021,8.339-0.051c-0.238,0.016-0.3,0.064-0.484,0.081c1.478,0.029,3.84,0.047,4.878-0.069
						c1.755,0.125,1.162-0.039,3.419,0.083c0.129,0.022-0.225,0.021-0.375,0.026c1.11,0.042,1.897,0.029,3.019,0.044
						c2.477-0.081,3.089-0.245,5.968-0.196c0.147,0.173-1.769,0.043-1.833,0.181c0.573-0.031,1.071-0.066,1.864-0.025
						c-0.476,0.067-0.104,0.042-0.432,0.106c0.303,0.022,0.914-0.022,1.448-0.071s0.984-0.093,0.984-0.093
						c0.033-0.033-0.175-0.051-0.744-0.047c0.672-0.106,2.828-0.009,4.222-0.051c-0.453-0.003-1.877-0.037-1.343-0.119
						c1.871,0.037,2.492-0.129,3.799-0.199c1.723,0.079-1.271,0.146-0.946,0.267c0.289,0.044,0.98,0.141,0.257,0.188
						c1.548,0.026,2.664-0.078,4.045-0.104l-0.038,0.034c1.929-0.014,3.986-0.165,5.606-0.095l-0.859-0.04
						c0.317-0.021,1.29-0.01,1.826-0.081c-0.058,0.057,1.2,0.108,0.685,0.156c0.858-0.183,4.386-0.111,5.348-0.284
						c0.516,0.046,0.104,0.12-0.053,0.162c-1.218-0.016-1.631-0.052-2.27,0.021c1.013-0.002,1.754,0.044,1.599,0.086
						c1.015-0.114,3.427-0.158,3.937-0.272c0.74,0.057,1.446,0.087,1.187,0.182c3.107-0.059-1.535-0.292,1.973-0.291
						c1.599,0.092-1.561,0.124,0.645,0.155l-0.407,0.015c1.594,0.244,1.118-0.174,2.922-0.166c0.241,0.133-1.257,0.095-0.012,0.19
						c1.651-0.033,2.375-0.23,4.026-0.188l-0.259,0.056c1.058,0.001,3.109,0.005,4.162,0.006c0.05,0.026-0.104,0.022-0.304,0.029
						c1.947,0.05,0.813-0.068,2.407,0.024l0.457-0.064c-0.801-0.046-2.349-0.111-3.361-0.035c1.012-0.076-1.586-0.168-1.084-0.281
						l-0.201,0.045c-2.644-0.195-6.05-0.219-9.404-0.293c-2.116,0.136-3.601-0.055-5.871,0.04c-0.354,0.155-0.425,0.031-2.374,0.062
						c1.032-0.019,0.123-0.118-0.53-0.139c-0.381,0.041-0.844,0.055-1.308,0.069c-0.394-0.053-2.852-0.178-3.75-0.073
						c-1.187-0.049,0.277-0.049,0.536-0.082c-0.483-0.08-0.966,0.062-1.36,0.009c0,0,0.019-0.017,0.143-0.025
						c-1.815,0.006-2.899-0.034-4.788-0.054c-0.156,0.153-1.857,0.058-2.697,0.112c0.272-0.049-1.063-0.057-1.599-0.086
						l-1.012,0.113c-1.001,0.096-1.394-0.068-2.688-0.016l0.313,0.027c-0.948,0.046-3.438-0.046-4.368-0.127
						c-8.741,0.297-13.521-0.167-22.733-0.087c-0.599,0.046,0.439,0.077-0.031,0.146c-0.938,0.006-1.149,0.007-2,0.013
						c0.752,0.041,0.632-0.01,0.536,0.032l1.305-0.043c0.063,0.011-0.081,0.016,0.043,0.038c0.439-0.014,0.954-0.044,1.517-0.036
						c-0.807,0.039-1.033,0.152-2.138,0.109c0.084-0.016,0.227-0.02,0.518-0.03c-0.911-0.009-0.957,0.045-1.641,0.015
						c-0.837-0.025-0.631,0.01-0.739-0.04l-2.601-0.061c-1.298,0.135-2.896,0.006-3.316-0.006c0.283-0.101,1.722-0.031,2.362-0.13
						l-0.938-0.074l-0.056,0.081l-1.335-0.022l0.075-0.015c-0.158,0.031-0.322,0.063-0.663,0.035
						c-0.058-0.011-0.188-0.033-0.04-0.038l-0.954,0.044c0.555-0.083-0.836-0.025-0.698-0.121c-3.107-0.048-3.953,0.129-6.688-0.002
						c0.444,0.045-0.867,0.152-1.708,0.135c-0.485-0.024-0.608-0.045-0.3-0.083l-1.103,0.049c-1.381-0.15-2.729-0.053-4.753-0.104
						l0.104-0.042c-0.75,0.05-1.558,0.09-2.685,0.074l0.206-0.084c-1.378-0.06-1.052,0.178-2.574,0.124
						c0.008,0.091,0.967,0.138,1.115,0.224c-0.359-0.092-1.993-0.106-1.612-0.041c-1.517,0.038-1.051-0.002-1.181-0.024l-0.89,0.056
						c-1.065-0.004-0.341-0.12,0.052-0.171c-0.994,0.098-2.077,0.029-3.205,0.013l0.457-0.041l-1.484-0.016
						c-0.968,0.071-2.323,0.076-3.573,0.039l0.864-0.12c-0.877-0.063-0.452,0.042-0.684,0.062c-1.386,0.059-1.684-0.023-2.417-0.09
						C7.035-0.788,4.833-1.11,2.931-0.929z M109.581,40.284l-0.206-0.018C109.84,40.245,110.104,40.226,109.581,40.284z
						 M97.385,40.25c1.469-0.047,1.003,0.01,1.114,0.043c-1.446-0.033-2.25,0.005-3.53-0.034c0.206,0.024,0.245,0.057,0.312,0.076
						c-0.51-0.005-1.02-0.032-1.194-0.093C94.718,40.121,98.021,40.32,97.385,40.25z M119.908,35.392
						c0.008,0.053,0.018,0.111,0.027,0.172c0,0,0,0,0,0.008L119.908,35.392z M117.575,39.763c-0.103-0.026-0.283-0.04-0.502-0.05
						C117.207,39.745,117.337,39.772,117.575,39.763z M103.104,39.614c-0.335-0.05-1.097-0.035-1.652-0.023
						C101.713,39.595,102.179,39.601,103.104,39.614z M11.816,39.668c0.438-0.019,1.263-0.07,0.51-0.106
						c-0.361,0.043-1.06-0.031-1.365,0.034c-0.042-0.003-0.049-0.003-0.075-0.005C11.325,39.631,11.687,39.666,11.816,39.668z
						 M-0.307,9.116c0.049,0.079,0.103,0.402,0.14,0.194c-0.001,0.037-0.002,0.083-0.004,0.123c0.017-0.108,0.031-0.201,0.042-0.116
						c0.01-0.349,0.022-0.716,0.008-0.962C-0.283,8.237-0.309,7.499-0.307,9.116z"/>
					<path fill="#96BB54" d="M0.355,23.451c-0.002-0.166-0.003-0.295-0.004-0.399C0.353,23.16,0.354,23.285,0.355,23.451z"/>
					<path fill="#96BB54" d="M-0.123,8.426c-0.01-0.032-0.026,0.38-0.044,0.884C-0.147,9.208-0.13,8.962-0.123,8.426z"/>
					<path fill="#96BB54" d="M120.452,11.736l0.017,0.425l0.048-0.851c-0.054-1.419-0.124-1.49-0.205-1.839
						c0.076,1.271,0.038,2.05,0.06,3.684L120.452,11.736z"/>
					<path fill="#96BB54" d="M119.916,12.457c-0.021,0.143-0.075,0.499-0.081,0.711l0.049,0.211L119.916,12.457z"/>
					<path fill="#96BB54" d="M119.681,29.268l0.042-1.348C119.681,27.494,119.605,29.057,119.681,29.268z"/>
					<path fill="#96BB54" d="M120.529,23.288l-0.054-0.708c-0.043,0.636-0.038,1.49,0.021,1.629
						C120.464,23.359,120.529,23.999,120.529,23.288z"/>
					<path fill="#96BB54" d="M119.67,32.887c0.097,0.42-0.043,1.348,0.049,1.625C119.692,34.159,119.767,32.953,119.67,32.887z"/>
					<path fill="#96BB54" d="M120.589,31.94c0.091-0.427,0.01-1.135,0.032-1.988C120.622,30.663,120.525,31.656,120.589,31.94z"/>
					<path fill="#96BB54" d="M119.868,39.692c-0.003-0.015,0.011-0.027,0.041-0.036c-0.016-0.077-0.021-0.174-0.022-0.289
						c0.003-0.156,0.006-0.339,0.01-0.532c0.013,0.103,0.024,0.195,0.036,0.293c0.012,0.088,0.022,0.138,0.028,0.24
						c-0.013-0.223-0.022-0.393-0.03-0.534c-0.006-0.17-0.011-0.305-0.016-0.434c-0.008-0.257-0.016-0.487-0.029-0.914
						c-0.022,0.428-0.048,0.954-0.069,1.367c-0.007,0.101-0.014,0.195-0.02,0.28c-0.007,0.073-0.014,0.079-0.022,0.109
						c-0.016,0.046-0.034,0.058-0.055,0.037c0.019,0.081,0.04,0.167,0.058,0.245C119.657,39.582,119.472,39.646,119.868,39.692z"/>
					<path fill="#96BB54" d="M120.6,33.992c0.027-0.71,0.091-1.136,0.085-1.987c-0.048,0.148-0.118,0.431-0.107,1.425l-0.081-0.355
						C120.439,33.998,120.605,32.713,120.6,33.992z"/>
					<path fill="#96BB54" d="M116.219,39.505l0.428,0.038c0.975-0.064,2.311-0.032,2.788-0.135
						C118.319,39.414,116.769,39.457,116.219,39.505z"/>
					<path fill="#96BB54" d="M120.451,37.475l0.112,0.135c0.016-0.992-0.038,0.072-0.064-0.283c0.016-0.283,0.026-0.708,0.005-0.917
						C120.521,37.539,120.413,36.482,120.451,37.475z"/>
					<path fill="#96BB54" d="M119.538,40.323l-1.305,0.048l0.994,0.124C121.35,40.451,119.246,40.424,119.538,40.323z"/>
					<path fill="#96BB54" d="M117.941,40.248l-0.142-0.022l-1.908,0.167C117.027,40.323,117.097,40.333,117.941,40.248z"/>
					<path fill="#96BB54" d="M94.816,39.515c-0.215,0.048,0.903,0.108,0.425,0.055C95.456,39.53,93.965,39.467,94.816,39.515z"/>
					<path fill="#96BB54" d="M99.376,40.418c-0.543-0.037-2.323,0.032-3.103,0.065C97.202,40.46,99.506,40.483,99.376,40.418z"/>
					<path fill="#96BB54" d="M95.957,40.496c0.063-0.002,0.181-0.007,0.317-0.013C96.133,40.489,96.032,40.493,95.957,40.496z"/>
					<path fill="#96BB54" d="M63.178,40.745c-0.083,0.001-0.166,0.005-0.237,0.013C63.023,40.753,63.094,40.75,63.178,40.745z"/>
					<path fill="#96BB54" d="M63.96,40.717c0.529,0.016,1.579-0.013,1.76-0.065c-0.832,0.024-1.568,0.04-2.542,0.093
						C63.544,40.739,63.993,40.775,63.96,40.717z"/>
					<path fill="#96BB54" d="M56.433,40.691c0.391-0.031,0.927-0.015,0.792-0.062C57.005,40.608,56.172,40.659,56.433,40.691z"/>
					<path fill="#96BB54" d="M5.726,39.283c-0.724-0.025-1.149-0.006-0.954,0.064C5.583,39.346,5.14,39.304,5.726,39.283z"/>
					<polygon fill="#96BB54" points="3.842,39.362 3.745,39.327 3.269,39.273 					"/>
					<path fill="#96BB54" d="M0.511,39.065c0.005,0.013,0.011,0.072,0.017,0.102l0.014,0.014l-0.007-0.015
						c-0.003-0.057-0.005-0.106-0.007-0.14C0.522,38.958,0.517,38.954,0.511,39.065z"/>
					<path fill="#96BB54" d="M0.546,39.19l-0.004-0.009L0.546,39.19z"/>
					<path fill="#96BB54" d="M0.524,39.231l0.037-0.027c-0.005,0-0.01-0.005-0.015-0.014C0.549,39.198,0.543,39.209,0.524,39.231z"
						/>
					<path fill="#96BB54" d="M0.524,37.566l-0.107,0.953c0.053,0.989,0.055-1.126,0.169-0.152L0.524,37.566z"/>
					<path fill="#96BB54" d="M0.494,34.25c0.035-0.909-0.134-2.219-0.007-2.734c-0.066-2.574-0.211,0.594-0.26-2.351
						c-0.065,2.783,0.244,1.415,0.174,3.886C0.479,31.856,0.463,33.852,0.494,34.25z"/>
					<path fill="#96BB54" d="M0.281,34.688c0.063,0.147,0.069-1.006,0.027-1.366C0.3,33.658,0.211,34.237,0.281,34.688z"/>
					<polygon fill="#96BB54" points="0.437,29.219 0.486,28.432 0.445,28.226 					"/>
					<path fill="#96BB54" d="M0.462,26.233L0.536,27C0.507,26.747,0.513,25.599,0.462,26.233z"/>
					<path fill="#96BB54" d="M0.554,22.077c0.025-0.721-0.146-1.374-0.108,0.148l0.007-0.347
						C0.479,21.968,0.539,21.148,0.554,22.077z"/>
					<path fill="#96BB54" d="M0.287,12.459c-0.003,0.497,0.018,1.083,0.053,0.979l-0.034-1.36L0.287,12.459z"/>
					<path fill="#96BB54" d="M-0.127,12.66c-0.103,0.457,0.009,1.276-0.025,2.18C-0.132,13.813-0.118,13.936-0.127,12.66z"/>
					<path fill="#96BB54" d="M0.434,10.905c0.043,0.367,0.015,0.936,0.008,1.277C0.501,12.015,0.486,11.079,0.434,10.905z"/>
					<path fill="#96BB54" d="M0.398,8.736C0.44,8.292,0.456,8.833,0.485,8.498C0.531,7.544,0.525,6.542,0.468,6
						C0.424,6.252,0.304,6.595,0.252,6.201C0.289,7.724,0.48,8.503,0.333,9.245l0.181,1.271C0.542,9.299,0.387,9.581,0.398,8.736z"
						/>
					<path fill="#96BB54" d="M0.056,11.814l0.061-0.815c-0.059,0.163-0.069-0.456-0.088-0.889
						C-0.104,10.324,0.048,11.349,0.056,11.814z"/>
					<path fill="#96BB54" d="M0.319,0.528C0.316,0.472,0.313,0.416,0.313,0.362c0.159-0.008,0.191-0.017,0.728-0.025L0.555,0.33
						C0.471,0.337,0.388,0.345,0.296,0.345L0.319,0.528z"/>
					<path fill="#96BB54" d="M0.55,0.41l0.02,0.038c0.022,0-0.031-0.004,0.103-0.011c0.124-0.006,0.29-0.015,0.455-0.024
						c0.331-0.018,0.662-0.035,0.662-0.035S1.447,0.386,1.105,0.394C0.828,0.401,0.55,0.41,0.55,0.41z"/>
					<polygon fill="#96BB54" points="2.233,0.455 2.029,0.448 1.01,0.481 					"/>
					<path fill="#96BB54" d="M5.84,0.48L5.522,0.425C5.085,0.439,4.208,0.377,4.292,0.452C4.672,0.427,5.582,0.436,5.84,0.48z"/>
					<path fill="#96BB54" d="M17.79-0.932c-0.313,0.037-0.125,0.069,0.063,0.102l0.497-0.094C18.202-0.919,17.91-0.91,17.79-0.932z"
						/>
					<path fill="#96BB54" d="M19.879-0.778l1.284-0.108c-1.479-0.017-1.686,0.068-2.975,0.085c0.546,0.035,1.31-0.043,2-0.013
						L19.879-0.778z"/>
					<path fill="#96BB54" d="M45.592-0.696c-0.116,0.069,0.174,0.06-0.779,0.105c1.308-0.043,2.431-0.028,3.929-0.039
						c-0.254-0.043,0.864-0.119,0.288-0.101l-1.67,0.042l0.25-0.048C46.437-0.789,46.844-0.658,45.592-0.696z"/>
					<path fill="#96BB54" d="M112.774,0.04c-0.156,0.034,0.046,0.064,0.248,0.095C114.019,0.097,112.573,0.047,112.774,0.04z"/>
				</g>
			</g>
		</g>
	</g>
</g>
</svg>
