<?xml version="1.0" encoding="utf-8"?>
<!-- Generator: Adobe Illustrator 16.0.0, SVG Export Plug-In . SVG Version: 6.00 Build 0)  -->
<!DOCTYPE svg PUBLIC "-//W3C//DTD SVG 1.1//EN" "http://www.w3.org/Graphics/SVG/1.1/DTD/svg11.dtd">
<svg version="1.1" id="Layer_1" xmlns="http://www.w3.org/2000/svg" xmlns:xlink="http://www.w3.org/1999/xlink" x="0px" y="0px"
	 width="118.837px" height="39.502px" viewBox="0 0 118.837 39.502" enable-background="new 0 0 118.837 39.502"
	 xml:space="preserve">
<g>
	<rect x="-1" fill="#FFFFFF" width="120" height="40"/>
	<g>
		<g>
			<g>
				<g>
					<path d="M118.894,39.502c0.088,0.474,0.028-0.16,0.018-0.742L118.894,39.502z"/>
					<path d="M118.912,38.76l0.014-0.524C118.911,38.375,118.909,38.562,118.912,38.76z"/>
					<path d="M118.973,33.872c0.069,1.125-0.027,2.464,0.081,3.167C119.118,35.905,119.091,34.152,118.973,33.872z"/>
					<polygon points="118.904,35.56 118.962,35.702 118.871,34.715 					"/>
					<polygon points="118.85,36.265 118.872,36.123 118.812,34.582 					"/>
					<path d="M119.015,30.069l0.017,1.127c-0.08,1.056-0.107-0.697-0.162,0.008c0.001,1.407,0.167,0.484,0.141,2.244
						c0.075-0.141-0.001-2.816,0.117-2.533C119.166,29.437,119.058,30.843,119.015,30.069z"/>
					<path d="M81.555-0.039c-0.059-0.004-0.107-0.007-0.159-0.011C81.458-0.037,81.523-0.028,81.555-0.039z"/>
					<path d="M62.972,0.044c-0.257-0.008-0.512-0.016-0.76-0.024c0.076,0.012,0.173,0.023,0.301,0.032L62.972,0.044z"/>
					<path d="M93.19-0.261c0.269,0.01,0.512,0.02,0.734,0.029C93.785-0.249,93.567-0.26,93.19-0.261z"/>
					<path d="M-0.688,24.176c-0.008-0.045-0.02-0.083-0.035-0.097c0,0.007-0.001,0.021-0.002,0.034l0.032,0.205L-0.688,24.176z"/>
					<path d="M42.163,0.228c-0.293,0.004-0.58,0.008-0.838,0.012C41.812,0.242,42.047,0.237,42.163,0.228z"/>
					<path d="M99.895-0.271c-0.103,0-0.191,0-0.28,0c0.089,0.003,0.21,0.007,0.345,0.012l-0.052-0.011
						C99.902-0.271,99.902-0.271,99.895-0.271z"/>
					<path d="M69.04,0.204c-0.253-0.005-0.48-0.01-0.673-0.015C68.599,0.195,68.821,0.199,69.04,0.204z"/>
					<path d="M119.147,12.836c0.011-0.318,0.003-0.583-0.01-0.819C119.119,12.22,119.116,12.479,119.147,12.836z"/>
					<path d="M119.135,6.188l0.001,0.039C119.15,6.188,119.146,6.169,119.135,6.188z"/>
					<path d="M119.146,1.939l0.003,0.075C119.159,1.966,119.161,1.939,119.146,1.939z"/>
					<path d="M119.137,12.017c0.046-0.55,0.197-0.715,0.032-1.425l-0.022,0.142c0.038-0.426-0.027-1.057-0.032-1.55
						c-0.016,0.05-0.029,0.109-0.04,0.179c-0.004,0.249-0.009,0.576-0.018,1.082C119.023,11.045,119.101,11.436,119.137,12.017z"/>
					<path d="M81.626-0.069C81.689-0.039,82.135-0.054,81.626-0.069L81.626-0.069z"/>
					<path d="M87.353-0.192c-0.187-0.002-0.372-0.003-0.564-0.005C86.97-0.191,87.148-0.186,87.353-0.192z"/>
					<path d="M108.943-0.15c-0.037-0.002-0.067-0.004-0.103-0.006C108.809-0.139,108.893-0.142,108.943-0.15z"/>
					<path d="M86.27-0.199l0.519,0.001C86.629-0.203,86.464-0.208,86.27-0.199z"/>
					<path d="M102.46-0.239c-0.031-0.001-0.063-0.003-0.089-0.004C102.392-0.242,102.424-0.241,102.46-0.239z"/>
					<path d="M72.93,40.217c-0.436,0.014-0.69-0.029-1.101-0.042c-0.921,0.109,1.899,0.003,0.563,0.1
						c0.408-0.001,0.73-0.015,1.03-0.031l-0.583-0.102C72.035,40.181,73.378,40.176,72.93,40.217z"/>
					<path d="M-0.903,29.571l0.009-0.186c-0.047,0.127-0.061,0.012-0.086,0.724c0.072,0.606,0.179-0.339,0.258,0.723
						c-0.008-0.205-0.004-0.511,0.005-0.8C-0.781,30.467-0.847,30.037-0.903,29.571z"/>
					<path d="M-0.717,30.032c0.002-0.012,0.003-0.019,0.005-0.031c0.008-0.05,0.017-0.101,0.025-0.155
						c0.004-0.152,0.008-0.299,0.011-0.422C-0.693,29.539-0.708,29.77-0.717,30.032z"/>
					<path d="M58.518,40.171c-0.178-0.004-0.338-0.007-0.484-0.01C58.27,40.181,58.411,40.181,58.518,40.171z"/>
					<path d="M43.5-1.079c0.209-0.012,0.416-0.023,0.582-0.032C43.762-1.106,43.602-1.094,43.5-1.079z"/>
					<path d="M-0.801,19.314c0.005-0.165,0.011-0.332,0.016-0.514c-0.001-0.107-0.003-0.197-0.005-0.325L-0.801,19.314z"/>
					<path d="M13.496,38.815c-0.367,0.116,0.281-0.01,1.01,0.058l0.678-0.063C14.563,38.792,13.989,38.812,13.496,38.815z"/>
					<path d="M73.466,40.251c0-0.003,0-0.007,0.007-0.01c-0.018,0.001-0.03,0.001-0.052,0.002L73.466,40.251z"/>
					<path d="M33.582,38.79c0.115,0.005,0.218,0.01,0.327,0.016C33.843,38.798,33.741,38.793,33.582,38.79z"/>
					<path d="M-0.667,26.007l0.007-2.585l-0.029,0.754C-0.631,24.536-0.737,25.649-0.667,26.007z"/>
					<path d="M2.469,38.747l-0.23-0.071c-0.443,0.026-0.897,0.041-1.356,0.049l-0.615,0.008l0.003-0.047l0.004-0.492
						c0.001-0.431,0.001-0.854,0.002-1.264c-0.005-0.82-0.029-1.588-0.098-2.259c0.249-3.133-0.223-2.055,0-4.927L0.145,29.84
						c0.042-9.447,0.172-19.467,0.052-28.297l0.05,0.019l0.006-1.034l0.002-0.227l0.002-0.042
						c13.265,0.003,26.212,0.006,39.379,0.009c1.316-0.046,0.522-0.156,1.657-0.211c0.493,0.004,1.606-0.002,1.612,0.06
						c-0.955,0.034-0.417,0.088-0.743,0.112c1.586-0.006,3.636,0.064,5.049-0.011l-1.185-0.079c0.55-0.033,1.415-0.011,1.914-0.007
						c-0.21,0.04,0.514,0.126,0.083,0.146c2.987-0.197,2.33,0.084,4.844,0.007c0.5-0.168,3.648-0.306,5.721-0.426l1.089,0.044
						c-1.447-0.001,0.026,0.123-1.767,0.114c1.498,0.048,2.886-0.023,4.302,0.003c-0.275-0.042-0.205-0.098,0.364-0.116
						c0.871,0.023,0.946,0.107,1.94,0.116l-0.98,0.053c0.661,0.063,1.229-0.021,1.843-0.03c0.199,0.07,1.683,0.083,1.42,0.161
						c1.337-0.096,1.811-0.042,3.251-0.103c-1.498-0.074,0.385-0.093,0.217-0.151l-1.688,0.028c2.38,0.047-0.773,0.012-0.595,0.132
						c-1.119-0.055,1.536-0.197-0.338-0.178c2.239-0.061,2.713-0.008,5.003-0.107c-1.382,0.022,0.264-0.078-0.479-0.114
						c1.753-0.004,0.435,0.042,0.978,0.119c0.954-0.003,1.305,0.065,2.184-0.023c1.548,0.036-0.232,0.09,0.55,0.138
						c-0.573,0.083-4.307-0.102-3.884,0.162c-0.807,0.003-1.792,0.104-2.957,0.099c1.016,0.034,2.469,0.121,3.725,0.061l0.063-0.148
						c0.954-0.004,1.15-0.104,1.837-0.091C74.3,0.068,74.958,0.13,75.726,0.119c-0.218-0.021-0.525-0.017-0.441-0.042
						c1.421-0.011,1.618-0.112,3.309-0.14c-1.395-0.039-1.683-0.083-2.989-0.147c0.352-0.104,0.92-0.016,1.688-0.028
						c-0.115,0.014-0.275,0.017-0.05,0.038l0.818-0.05c1.74,0.045-0.217,0.151,1.216,0.201c0.991,0.087,1.357-0.049,2.118,0
						c-0.051-0.009-0.104-0.019-0.148-0.026c0.168,0.003,0.289,0.005,0.378,0.007c-0.006-0.002-0.013-0.004-0.013-0.007
						c0.922-0.015,1.913-0.007,2.175-0.085c0.098,0.036,0.808-0.01,1.108-0.034c0.515-0.031,1.747-0.123,2.514,0.002l-0.058,0.001
						c1.15,0.015,2.046,0.054,1.798,0.096l1.855,0.031l-0.199,0.101c1.69-0.027,1.522-0.086,2.682-0.19
						c1.211,0.06,3.328,0.011,4.128-0.026c0.135,0,0.337,0,0.674-0.001l-0.706-0.04c1.319,0.004,1.159-0.049,2.029-0.049
						c-0.181-0.01-0.207-0.015,0.28,0c0.147,0.002,0.307,0.005,0.5,0.008c-0.044,0.011-0.239,0.009-0.435,0.003l0.159,0.034
						c1.055,0.107,1.618-0.061,2.746-0.023c-0.109,0.002-0.29,0.007-0.404,0.01c0.634,0.027,1.544,0.17,1.806,0.083
						c0.146,0.011,0.37-0.006,0.587-0.028l0.466,0.015c-0.19-0.006-0.337-0.011-0.46-0.016c0.29-0.029,0.564-0.065,0.602-0.043
						l1.62,0.018c0.307,0.015,0.724,0.002,1.062-0.012l0.275,0.042c0.59-0.006,0.595,0.019,0.525,0.03
						c2.049,0.146,3.168-0.074,5.383,0.052c0.422-0.07-0.493-0.102-0.563-0.139c0.345-0.054,1.612-0.102,2.246-0.141
						c0.302,0.03,0.795,0.059,1.32,0.088c0.251,0.015,0.509,0.03,0.757,0.045c0.161,0.017,0.314,0.033,0.449,0.048
						c-0.042,0.395-0.087,0.55-0.141,0.465c0,0.196,0,0.336,0,0.432c0.001,0.111,0.005,0.171,0.009,0.194
						c0.008,0.046,0.021-0.053,0.036-0.181c0.029-0.256,0.065-0.626,0.089-0.169l-0.006,0.209c0.005-0.126,0.009-0.248,0.014-0.364
						c0.007-0.083,0.014-0.163,0.02-0.239c0.02-0.154,0.038-0.294,0.054-0.422c-0.051-0.011-0.097-0.021-0.142-0.03
						c-0.015-0.021,0.068-0.037,0.222-0.05c0.017,0.165,0.027,0.441,0.031,0.752c0.004,0.336,0.002,0.663-0.006,0.842l-0.107-0.346
						c0.038,1.683,0.199,1.332,0.307,2.38c-0.042,1.34-0.14,0.569-0.236,0.852l0.027,1.408h-0.081
						c0.021,0.914,0.097,1.127,0.065,2.393c-0.076-0.915-0.075,1.9-0.177,0.634c-0.027,0.703,0.128,0.906,0.021,1.266
						c0.086,0.488,0.042-0.631,0.07-0.986c0.124-0.287,0.059,1.544,0.091,2.389c-0.064,0.071-0.075-0.563-0.118,0.43
						c0.049,0.204,0.086,0.836,0.027,1.4c0.081,0,0.017,1.127,0.012,1.69c0.016-0.634,0.075-1.549,0.144-1.135
						c0.032,0.493,0.048,0.917,0.038,2.041l0.038-0.773c0.118,0.981-0.085,1.621-0.048,2.957c-0.048-0.563-0.048-0.916-0.107-1.407
						c0.03,0.638,0.087,1.835,0.134,2.814l-0.117,1.127c0.059,0.14-0.005,1.267,0.075,1.267c-0.054,1.402-0.097-1.127-0.156-1.267
						c-0.053,1.76,0.134,1.409,0.011,3.096l-0.075-0.561c-0.005,0.561,0.038,1.688,0,1.758c0.027,0,0.017-0.282,0.017-0.634
						c0.161,0.346,0.112,2.598,0.279,2.388l0.011-0.776c0.032,1.189,0.145,2.037,0.086,2.951c-0.053,0.703-0.112-0.493-0.156-0.909
						c-0.011,1.12,0.183,0.909,0.167,2.247c0.026-0.703,0.086-0.569,0.128-0.147c0.011-0.773,0.043-2.388-0.027-2.104l-0.016,0.28
						c-0.043-0.07-0.059-0.493-0.081-0.702c0-1.058,0.075-0.493,0.107-0.705c0.026-1.759-0.166-0.143-0.161-1.753l0.032-0.21
						c-0.043-0.775-0.049-1.971-0.151-2.183c0.108-0.705-0.042-1.825,0.021-2.597c0.236-0.147-0.016,2.738,0.113,3.653
						c0.048-0.844,0.113,0.484,0.167,0.837l-0.103-2.667c0.032-0.213,0.15-0.994,0.064-1.479l-0.006,0.209
						c-0.026-1.057-0.124-0.772-0.091-1.688c0.021-0.142,0.059,0.139,0.075,0.209c0.022-0.844-0.054-0.702-0.075-1.266
						c0.021-0.844,0.097,0.422,0.123-0.282c-0.091-0.979,0.021-1.547,0.016-2.395c-0.134,0.361-0.183-3.369-0.301-1.54l-0.091-2.034
						c0.07-0.635,0.188,1.399,0.301,0.836l-0.005,1.62c0.167-0.268-0.109-3.392,0.078-4.466c0.007-0.865-0.017-0.653,0.066-2.291
						l-0.149,0.281c0.034-0.85,0.116-1.125,0.143-1.164c-0.009-0.499-0.006-0.946,0.001-1.409c0.022,0.122,0.042,0.294,0.05,0.596
						c0.083-0.64,0.051-0.825,0.007-1.048c-0.038-0.346-0.032-0.871-0.031-1.402l0.056,0.479c-0.013-0.325-0.029-0.723-0.056-0.759
						c-0.004-0.22-0.009-0.428-0.013-0.63c-0.026,0.142-0.113,0.493-0.152,1.255c0.029-1.498,0.052-2.748,0.076-4.004
						c-0.303-0.01-0.606-0.02-0.914-0.029c-0.248-0.015-0.499-0.029-0.756-0.044c0.063-0.043,0.768-0.097,0.556-0.102
						c-0.844-0.022-1.76,0.053-1.683,0.118c-0.192,0.002-0.338,0.004-0.466,0.006c-0.161-0.037-0.359-0.076-0.76-0.083
						c-0.092-0.013-0.244-0.025-0.533-0.03c-0.282,0.118-1.899,0.059-2.25,0.113c0.381,0.012,0.849,0.011,1.323,0.007
						c-0.679,0.079-1.286,0.169-1.811,0.105c1.261-0.075-1.344-0.123,0.555-0.155c-1.336-0.15-0.697,0.107-2.11,0.054l-0.915-0.059
						c0.139-0.086,1.479-0.043,1.267-0.076l-0.635,0.011c0.635-0.065,3.028-0.022,4.5-0.119l-2.957-0.048
						c-3.725,0.103-8.372-0.015-11.533,0.173l0.134-0.002c-0.055,0.009-0.082,0.024-0.126,0.057l-0.142-0.021l-0.625,0.065
						c-0.711-0.081-2.042-0.096-3.175-0.16c0.711,0.053,0.711,0.053,0.781,0.117c-0.142,0.086-0.251,0.123-1.308,0.091
						c-0.011-0.061,0.641-0.06-0.138-0.108c0.402,0.03,0.044,0.073-0.417,0.081c-0.595-0.04-1.586-0.048-1.599-0.109
						c0.275-0.017,0.498,0.004,0.684,0.013c0.275-0.016-1.119-0.055-0.302-0.105l-1.074,0.017c-0.627-0.051,0.417-0.08,0.167-0.113
						c-1.787,0.042-2.702,0.183-4.319,0.224c0.076-0.033,0.093-0.169,0.076-0.129c-1.244-0.041-2.668,0.148-4.084,0.159
						c0.208-0.041,0.737-0.024,1.166-0.044c-4.331-0.052-7.878-0.054-11.94-0.184l-1.057,0.14l-1.062-0.093
						c-4.275-0.09-7.557,0.001-11.622,0.043c-1.266,0.009-0.76-0.098-1.356-0.137c-2.778-0.016-3.456,0.142-6.104,0.174
						c0.365-0.043,0.986-0.164-0.154-0.169c-0.213,0.04-0.351,0.104-1.071,0.079l0.365-0.043c-0.657-0.063-1.292-0.003-2.655-0.03
						c-2.406,0.003-4.703,0.103-6.681,0.257c-2.128-0.015,0.221-0.151-0.184-0.182c1.501,0.052,1.043-0.024,1.369-0.073
						c-0.794,0.04-1.754,0.064-2.163-0.037c-1.106,0.006-1.606,0.002-2.7,0.069c0.55-0.034,1.022,0.02,0.506,0.065
						c-0.905-0.035-3.208,0.003-3.081-0.122C30.823-1.102,24.961-1.1,19.349-1.099c-0.946,0.064,0.718,0.025,0.198,0.071
						c-1.375,0.084-1.087-0.044-2.188,0.023l0.455-0.068c-1.638-0.01-3.379,0.116-4.966,0.179c0.263-0.078-1.304-0.064,0.015-0.11
						c-0.776,0.013-1.718-0.334-2.317-0.264l0.874,0.324c-0.043,0.032-1.131,0.012-1.022,0.033C9.719-0.975,8.887-1.05,8.418-1.05
						c-0.229-0.082,0.95-0.064,1.595-0.063C10.11-1.249,7.837-1.2,8.773-1.325c-1.384,0.022,0.197,0.07-0.63,0.121L6.936-1.233
						l0.932,0.046C6.86-1.147,6.514-1.043,5.169-1.119L3.774-0.985c-0.142-0.108-1.018-0.02-1.735-0.045l0.449-0.068
						c-0.954,0.003-1.324-0.015-1.92-0.055c0.538-0.095,0.864,0.022,1.094-0.067L0.614-1.253c0.005,0.062-0.662,0.109,0.089,0.146
						c-0.208,0.025-0.362,0.048-0.729,0.07c-0.306,0.019-0.612,0.038-0.953,0.059c0.016,0.432,0.033,0.917,0.055,1.544
						c0.012,0.438,0.018,0.979,0.015,1.673c-0.104,1.102-0.092-1.185-0.196-0.727c-0.044,2.531,0.271,3.094,0.259,4.574
						c-0.043,1.886,0.054,1.778,0.061,3.691c-0.071-0.608-0.077,1.337-0.144,1.688l-0.074-0.755c0.022,0.582-0.005,1.14-0.058,0.968
						c0.096-0.108,0.09,2.481,0.136,3.799l0.083-0.23c0.027,1.031,0.079,2.458,0.058,3.551c0.026,1.625,0.099,1.256,0.189,2.508
						C-0.67,22-0.758,21.925-0.848,21.694c0.042-0.435,0.017-1.172,0.042-1.888c-0.071-2.055-0.244-3.653-0.204-5.703
						c-0.199-0.889,0.023,1.383-0.047,2.379c-0.012-0.029-0.016-0.102-0.018-0.177c-0.002,0.088-0.004,0.166-0.006,0.25
						c-0.024-0.735-0.056-1.933-0.157-2.132c0.02,1.229,0.198,0.891,0.113,2.419c0.056,1.132-0.101,2.055-0.115,2.74
						c0.075,0.754,0.234,0.786,0.204,2.642l-0.112-0.813c-0.002,2.1,0.164,0.985,0.158,2.93c0.013-0.684,0.109,0.661,0.113-0.639
						c0.059,0.639,0.071,2.055,0.039,3.111c0.017,0.275,0.038,0.058,0.076,0.108c0.077-1.169-0.076-1.848,0.036-2.808l-0.12-0.813
						c0.043-1.087,0.14-1.197,0.188-0.532c-0.005-0.306-0.022-0.575-0.001-0.799c0.181-0.186-0.064,1.306,0.089,1.683l-0.013-0.768
						c0.117-0.333,0.103,1.793,0.095,2.784c-0.055,1.12-0.075,2.145-0.161,2.22l-0.036-1.503c-0.068,0.78,0.04,1.92,0.036,2.795
						c-0.011,0.058-0.02,0.142-0.026,0.244c0.008-0.045,0.015-0.071,0.023-0.071c-0.004,0.186-0.015,0.352-0.035,0.493
						c-0.004,0.768,0.047,1.895,0.02,2.61l0.076-0.089l-0.043-0.097c0.003-0.703,0.05-1.657,0.106-1.125
						c0.053,1.585-0.093,1.905-0.16,2.283c-0.116-0.365,0.001-1.548-0.039-2.354c-0.115,0.485-0.012,1.612-0.088,3.25
						c-0.126-0.652,0.002-1.899-0.114-2.26c-0.022,1.32,0.068,1.665,0.036,3.053c-0.058-0.177-0.064-1.53-0.139-1.441l-0.036,0.891
						c-0.007-2.188-0.157,0.383-0.188-1.324c-0.052,0.806,0.103,1.125,0.023,2.27c0.055-0.319,0.155-1.234,0.205-0.138l-0.037,1.24
						c-0.061,0.519-0.135-1.292-0.186-0.485l0.043,1.297c0.038-0.044,0.057-0.666,0.108-0.275c-0.021,0.375,0.016,0.682,0.064,1.006
						c0.024,0.162,0.049,0.332,0.076,0.509c0.025,0.274,0.047,0.566,0.061,0.881c0,0.124-0.001,0.245-0.001,0.352
						c0.44,0.005,0.829,0.01,1.152,0.014c0.265,0.008,0.4,0.021,0.52,0.04c1.772-0.112,4.018-0.108,5.651-0.214
						c-1.114,0.076,0.044,0.129,0.71,0.186c-1.282,0.016-1.292,0.134-1.203,0.21c0.781-0.013,1.292-0.135,0.897-0.174
						c1.304,0.048,0.9-0.082,2.045-0.002c0.742,0.041-0.371,0.116-0.115,0.161c1.409,0.005,0.383-0.144,1.913-0.116
						c-0.084,0.016-0.223,0.021-0.102,0.042c0.826,0.025,1.715-0.03,1.893-0.089c0.878,0.154,2.477-0.017,2.304,0.133
						c1.998-0.04-0.297-0.082,0.097-0.134c0.818-0.066,2.33-0.012,2.802,0.012c-0.493,0.003-0.945,0.044-1.42,0.021l0.421,0.104
						c2.485,0.074,1.576-0.235,3.976-0.146c-1.236,0.054-0.411,0.079-1.024,0.152c0.372-0.026,2.251,0.003,1.114-0.076
						c0.899,0.019,1.525,0.033,2.149,0.046c0.801-0.04,1.669-0.069,2.136-0.137c1.262,0.011,2.197,0.085,2.8,0.13
						c2.655-0.075,5.105,0.053,7.902-0.027l-0.206-0.006c2.17,0.019-0.96-0.138,1.294-0.135c-0.301,0.127,1.35,0.086,2.079,0.154
						c2.765,0.065,4.781-0.093,7.328-0.008c-0.021,0.027-0.186,0.059-0.678,0.062c1.944,0.04,3.512,0.014,5.266,0.021l-0.076,0.016
						c2.81,0.104,5.363-0.021,8.272-0.051c-0.236,0.016-0.297,0.064-0.48,0.081c1.466,0.029,3.809,0.047,4.839-0.069
						c1.74,0.125,1.152-0.039,3.392,0.083c0.128,0.022-0.223,0.021-0.372,0.026c1.101,0.042,1.881,0.029,2.995,0.044
						c2.457-0.081,3.064-0.245,5.92-0.196c0.146,0.173-1.755,0.043-1.818,0.181c0.569-0.031,1.063-0.066,1.849-0.025
						c-0.472,0.067-0.103,0.042-0.428,0.106c0.3,0.022,0.906-0.022,1.436-0.071c0.529-0.049,0.976-0.093,0.976-0.093
						c0.033-0.033-0.173-0.051-0.737-0.047c0.667-0.106,2.804-0.009,4.188-0.051c-0.45-0.003-1.862-0.037-1.333-0.119
						c1.855,0.037,2.471-0.129,3.769-0.199c1.708,0.079-1.261,0.146-0.939,0.267c0.287,0.044,0.973,0.141,0.255,0.188
						c1.536,0.026,2.642-0.078,4.012-0.104l-0.038,0.034c1.914-0.014,3.955-0.165,5.561-0.095l-0.852-0.04
						c0.314-0.021,1.279-0.01,1.811-0.081c-0.058,0.057,1.19,0.108,0.679,0.156c0.851-0.183,4.351-0.111,5.305-0.284
						c0.511,0.046,0.103,0.12-0.053,0.162c-1.208-0.016-1.618-0.052-2.252,0.021c1.005-0.002,1.741,0.044,1.586,0.086
						c1.006-0.114,3.399-0.158,3.905-0.272c0.734,0.057,1.435,0.087,1.178,0.182c3.082-0.059-1.523-0.292,1.957-0.291
						c1.586,0.092-1.548,0.124,0.64,0.155l-0.404,0.015c1.581,0.244,1.108-0.174,2.898-0.166c0.239,0.133-1.247,0.095-0.012,0.19
						c1.638-0.033,2.355-0.23,3.994-0.188l-0.257,0.056c1.05,0.001,3.084,0.005,4.128,0.006c0.049,0.026-0.103,0.022-0.302,0.029
						c1.932,0.05,0.807-0.068,2.388,0.024l0.454-0.064c-0.794-0.046-2.33-0.111-3.334-0.035c1.004-0.076-1.573-0.168-1.075-0.281
						l-0.199,0.045c-2.622-0.195-6.002-0.219-9.329-0.293c-2.099,0.136-3.571-0.055-5.824,0.04
						c-0.351,0.155-0.422,0.031-2.355,0.062c1.024-0.019,0.122-0.118-0.525-0.139c-0.378,0.041-0.837,0.055-1.297,0.069
						c-0.391-0.053-2.829-0.178-3.72-0.073c-1.177-0.049,0.275-0.049,0.532-0.082c-0.479-0.08-0.958,0.062-1.349,0.009
						c0,0,0.019-0.017,0.142-0.025c-1.801,0.006-2.875-0.034-4.75-0.054c-0.154,0.153-1.842,0.058-2.675,0.112
						c0.27-0.049-1.054-0.057-1.586-0.086l-1.004,0.113c-0.993,0.096-1.382-0.068-2.667-0.016l0.31,0.027
						c-0.94,0.046-3.41-0.046-4.332-0.127c-8.671,0.297-13.413-0.167-22.55-0.087c-0.594,0.046,0.436,0.077-0.031,0.146
						c-0.93,0.006-1.14,0.007-1.983,0.013c0.746,0.041,0.626-0.01,0.531,0.032l1.294-0.043c0.063,0.011-0.08,0.016,0.043,0.038
						c0.435-0.014,0.946-0.044,1.504-0.036c-0.801,0.039-1.025,0.152-2.121,0.109c0.084-0.016,0.226-0.02,0.514-0.03
						c-0.904-0.009-0.949,0.045-1.628,0.015c-0.83-0.025-0.626,0.01-0.733-0.04l-2.58-0.061c-1.287,0.135-2.873,0.006-3.289-0.006
						c0.281-0.101,1.708-0.031,2.343-0.13l-0.93-0.074l-0.055,0.081l-1.325-0.022l0.074-0.015c-0.157,0.031-0.319,0.063-0.657,0.035
						c-0.058-0.011-0.187-0.033-0.04-0.038l-0.946,0.044c0.55-0.083-0.83-0.025-0.692-0.121c-3.083-0.048-3.921,0.129-6.634-0.002
						c0.44,0.045-0.86,0.152-1.694,0.135c-0.481-0.024-0.603-0.045-0.297-0.083l-1.094,0.049c-1.37-0.15-2.708-0.053-4.715-0.104
						l0.104-0.042c-0.744,0.05-1.545,0.09-2.664,0.074l0.204-0.084c-1.367-0.06-1.044,0.178-2.553,0.124
						c0.008,0.091,0.959,0.138,1.106,0.224c-0.356-0.092-1.977-0.106-1.599-0.041c-1.505,0.038-1.043-0.002-1.172-0.024
						l-0.883,0.056c-1.057-0.004-0.338-0.12,0.052-0.171c-0.986,0.098-2.06,0.029-3.179,0.013l0.453-0.041l-1.472-0.016
						c-0.96,0.071-2.305,0.076-3.544,0.039l0.856-0.12c-0.87-0.063-0.448,0.042-0.678,0.062c-1.375,0.059-1.67-0.023-2.397-0.09
						C6.54,38.888,4.356,38.566,2.469,38.747z M108.418-0.207l-0.204-0.018C108.675-0.246,108.938-0.265,108.418-0.207z
						 M96.32-0.241c1.458-0.047,0.995,0.01,1.105,0.043c-1.434-0.033-2.232,0.005-3.501-0.034c0.204,0.024,0.243,0.057,0.309,0.076
						c-0.505-0.005-1.012-0.032-1.185-0.093C93.675-0.37,96.951-0.171,96.32-0.241z M119.173,4.223
						c-0.008-0.053-0.018-0.111-0.027-0.171c0,0,0,0,0-0.008L119.173,4.223z M116.348-0.728c-0.103-0.026-0.281-0.04-0.499-0.05
						C115.983-0.746,116.111-0.719,116.348-0.728z M101.994-0.876c-0.332-0.05-1.088-0.035-1.638-0.023
						C100.613-0.896,101.076-0.89,101.994-0.876z M11.441-0.822c0.435-0.019,1.253-0.07,0.506-0.106
						c-0.358,0.043-1.051-0.031-1.354,0.034c-0.042-0.003-0.049-0.003-0.075-0.005C10.955-0.859,11.313-0.825,11.441-0.822z
						 M-0.415,30.128c-0.049-0.079-0.103-0.398-0.14-0.193c0.001-0.036,0.002-0.082,0.004-0.122
						c-0.017,0.108-0.031,0.199-0.042,0.115c-0.01,0.346-0.022,0.71-0.008,0.954C-0.439,31-0.414,31.733-0.415,30.128z"/>
					<path d="M-1.078,15.91c0.002,0.165,0.003,0.293,0.004,0.396C-1.075,16.198-1.076,16.075-1.078,15.91z"/>
					<path d="M-0.6,30.813c0.01,0.031,0.026-0.377,0.044-0.877C-0.575,30.037-0.592,30.281-0.6,30.813z"/>
					<path d="M118.629,27.688l-0.017-0.421l-0.048,0.844c0.054,1.408,0.124,1.478,0.205,1.825c-0.076-1.262-0.038-2.034-0.06-3.654
						L118.629,27.688z"/>
					<path d="M119.166,26.973c0.021-0.142,0.075-0.494,0.081-0.705l-0.049-0.21L119.166,26.973z"/>
					<path d="M119.4,10.298l-0.042,1.337C119.4,12.057,119.476,10.507,119.4,10.298z"/>
					<path d="M118.552,16.229l0.054,0.702c0.043-0.631,0.038-1.479-0.021-1.617C118.617,16.159,118.552,15.524,118.552,16.229z"/>
					<path d="M119.411,6.708c-0.097-0.417,0.043-1.337-0.049-1.613C119.389,5.446,119.314,6.642,119.411,6.708z"/>
					<path d="M118.492,7.646c-0.091,0.424-0.01,1.126-0.032,1.973C118.459,8.914,118.556,7.929,118.492,7.646z"/>
					<path d="M119.137-0.744c0.035,0.012,0.05,0.223,0.056,0.548c0,0.162,0,0.346,0.001,0.547c-0.003,0.143-0.006,0.297-0.009,0.456
						c-0.021-0.236-0.053-0.298-0.064-0.687c0.041,1.093,0.043,1.157,0.075,2.024c0.049-0.868,0.08-2.045,0.166-2.078
						c-0.023-0.373-0.052-0.753-0.081-1.008c-0.529,0.048-0.707,0.1-0.14,0.14C119.14-0.792,119.139-0.769,119.137-0.744z"/>
					<path d="M118.481,5.611c-0.027,0.705-0.091,1.127-0.085,1.971c0.048-0.146,0.118-0.427,0.107-1.414l0.081,0.352
						C118.642,5.606,118.476,6.88,118.481,5.611z"/>
					<path d="M115.003-0.985l0.425,0.038c0.493-0.032,1.055-0.041,1.564-0.053c0.253-0.009,0.492-0.018,0.708-0.026
						c0.26-0.021,0.487-0.039,0.693-0.055c-0.645,0.011-1.367,0.022-2.009,0.033C115.795-1.032,115.284-1.009,115.003-0.985z"/>
					<path d="M118.63,2.157l-0.112-0.133c-0.016,0.984,0.038-0.071,0.064,0.281c-0.016,0.281-0.026,0.703-0.005,0.909
						C118.561,2.094,118.668,3.142,118.63,2.157z"/>
					<path d="M118.161-0.168L117-0.12l0.985,0.124C118.643-0.04,118.065-0.067,118.161-0.168z"/>
					<path d="M116.71-0.243l-0.141-0.022l-1.893,0.167C115.804-0.168,115.873-0.158,116.71-0.243z"/>
					<path d="M93.772-0.976c-0.213,0.048,0.896,0.108,0.421,0.055C94.407-0.961,92.928-1.023,93.772-0.976z"/>
					<path d="M98.295-0.073c-0.538-0.037-2.304,0.032-3.077,0.065C96.139-0.031,98.424-0.007,98.295-0.073z"/>
					<path d="M94.903,0.005c0.063-0.002,0.179-0.007,0.315-0.013C95.078-0.001,94.978,0.002,94.903,0.005z"/>
					<path d="M62.39,0.254c-0.083,0.001-0.165,0.005-0.235,0.013C62.235,0.263,62.306,0.259,62.39,0.254z"/>
					<path d="M63.166,0.226c0.524,0.016,1.566-0.013,1.746-0.065c-0.826,0.024-1.556,0.04-2.522,0.093
						C62.752,0.248,63.197,0.285,63.166,0.226z"/>
					<path d="M55.698,0.201c0.388-0.031,0.92-0.015,0.787-0.062C56.266,0.118,55.44,0.168,55.698,0.201z"/>
					<path d="M5.4-1.208C4.682-1.233,4.26-1.214,4.454-1.144C5.258-1.145,4.818-1.187,5.4-1.208z"/>
					<polygon points="3.531,-1.129 3.435,-1.164 2.963,-1.218 					"/>
					<path d="M-1.233,0.421c-0.005-0.026-0.011-0.042-0.017-0.13C-1.254,0.185-1.259,0.06-1.264-0.066
						c0.006,0.217,0.012,0.418,0.015,0.526C-1.244,0.527-1.239,0.531-1.233,0.421z"/>
					<path d="M-1.268-0.341c0.001,0.085,0.003,0.187,0.004,0.274C-1.265-0.153-1.267-0.255-1.268-0.341z"/>
					<path d="M-1.246-0.951l-0.037-0.14c0.003,0.161,0.009,0.461,0.015,0.75C-1.271-0.6-1.266-0.872-1.246-0.951z"/>
					<path d="M-1.246,1.908l0.107-0.945c-0.053-0.981-0.055,1.117-0.169,0.15L-1.246,1.908z"/>
					<path d="M-1.216,5.197C-1.251,6.099-1.082,7.399-1.209,7.91c0.066,2.553,0.211-0.589,0.26,2.332
						c0.065-2.761-0.244-1.404-0.174-3.855C-1.202,7.571-1.186,5.593-1.216,5.197z"/>
					<path d="M-1.003,4.762C-1.066,4.616-1.072,5.761-1.03,6.117C-1.022,5.785-0.934,5.21-1.003,4.762z"/>
					<polygon points="-1.159,10.188 -1.208,10.969 -1.167,11.173 					"/>
					<path d="M-1.185,13.149l-0.073-0.76C-1.229,12.64-1.235,13.779-1.185,13.149z"/>
					<path d="M-1.276,17.272c-0.025,0.715,0.146,1.363,0.108-0.147l-0.007,0.344C-1.201,17.38-1.261,18.193-1.276,17.272z"/>
					<path d="M-1.009,26.813c0.003-0.493-0.018-1.074-0.053-0.972l0.034,1.35L-1.009,26.813z"/>
					<path d="M-0.595,26.614c0.103-0.454-0.009-1.266,0.025-2.162C-0.59,25.47-0.604,25.348-0.595,26.614z"/>
					<path d="M-1.156,28.354c-0.043-0.364-0.015-0.928-0.008-1.266C-1.223,27.253-1.208,28.182-1.156,28.354z"/>
					<path d="M-1.121,30.506c-0.042,0.441-0.058-0.097-0.086,0.236c-0.046,0.946-0.041,1.94,0.017,2.478
						c0.044-0.25,0.164-0.59,0.216-0.199c-0.037-1.51-0.228-2.283-0.081-3.019l-0.181-1.261
						C-1.265,29.948-1.109,29.667-1.121,30.506z"/>
					<path d="M-0.778,27.453l-0.061,0.809C-0.78,28.1-0.77,28.713-0.75,29.143C-0.618,28.931-0.77,27.914-0.778,27.453z"/>
					<path d="M-1.041,39.015c0.003,0.339,0.007,0.678,0.007,1.021l1.629-0.023l-0.734-0.007c-0.294,0.006-0.588,0.012-0.876,0.012
						L-1.041,39.015z"/>
					<path d="M-0.266,40.085l0.063,0.038c0,0,0.442-0.018,0.884-0.035c0.328-0.018,0.656-0.035,0.656-0.035L-0.266,40.085z"/>
					<polygon points="1.777,40.13 1.574,40.124 0.564,40.157 					"/>
					<path d="M5.355,40.156L5.04,40.101c-0.434,0.014-1.304-0.048-1.221,0.027C4.196,40.103,5.099,40.111,5.355,40.156z"/>
					<path d="M17.209,38.744c-0.311,0.037-0.125,0.069,0.062,0.102l0.493-0.094C17.617,38.756,17.328,38.766,17.209,38.744z"/>
					<path d="M19.281,38.898l1.273-0.108c-1.467-0.017-1.672,0.068-2.951,0.085c0.542,0.035,1.3-0.043,1.984-0.013L19.281,38.898z"
						/>
					<path d="M44.787,38.98c-0.115,0.069,0.173,0.06-0.773,0.105c1.297-0.043,2.412-0.028,3.898-0.039
						c-0.252-0.043,0.856-0.119,0.285-0.101l-1.656,0.042l0.249-0.048C45.625,38.887,46.029,39.018,44.787,38.98z"/>
					<path d="M111.427,39.716c-0.154,0.034,0.045,0.064,0.246,0.095C112.662,39.773,111.228,39.723,111.427,39.716z"/>
				</g>
			</g>
		</g>
	</g>
</g>
</svg>
