<?xml version="1.0" encoding="utf-8"?>
<!-- Generator: Adobe Illustrator 16.0.0, SVG Export Plug-In . SVG Version: 6.00 Build 0)  -->
<!DOCTYPE svg PUBLIC "-//W3C//DTD SVG 1.1//EN" "http://www.w3.org/Graphics/SVG/1.1/DTD/svg11.dtd">
<svg version="1.1" id="Layer_1" xmlns="http://www.w3.org/2000/svg" xmlns:xlink="http://www.w3.org/1999/xlink" x="0px" y="0px"
	 width="121.686px" height="41.289px" viewBox="0 0 121.686 41.289" enable-background="new 0 0 121.686 41.289"
	 xml:space="preserve">
<g>
	<g>
		<rect x="248" y="378" fill="#FFFFFF" width="120" height="40"/>
		<g>
			<g>
				<g>
					<g>
						<path d="M367.832,417.992c0.088,0.477,0.028-0.16,0.019-0.744L367.832,417.992z"/>
						<path d="M367.851,417.248l0.013-0.527C367.849,416.86,367.847,417.048,367.851,417.248z"/>
						<path d="M367.911,412.338c0.07,1.13-0.026,2.476,0.081,3.181C368.057,414.38,368.029,412.62,367.911,412.338z"/>
						<polygon points="367.842,414.034 367.9,414.176 367.81,413.186 						"/>
						<polygon points="367.788,414.741 367.81,414.6 367.75,413.052 						"/>
						<path d="M367.954,408.52l0.016,1.132c-0.08,1.061-0.107-0.7-0.161,0.009c0.001,1.412,0.167,0.486,0.141,2.253
							c0.075-0.142-0.001-2.828,0.117-2.543C368.104,407.886,367.997,409.298,367.954,408.52z"/>
						<path d="M330.172,378.452c-0.06-0.005-0.107-0.008-0.16-0.012C330.074,378.453,330.14,378.463,330.172,378.452z"/>
						<path d="M311.511,378.535c-0.258-0.008-0.514-0.017-0.763-0.024c0.076,0.013,0.173,0.023,0.302,0.032L311.511,378.535z"/>
						<path d="M341.855,378.229c0.27,0.011,0.514,0.021,0.737,0.029C342.453,378.242,342.233,378.23,341.855,378.229z"/>
						<path d="M247.587,402.77c-0.008-0.045-0.02-0.083-0.035-0.097c0,0.007-0.001,0.021-0.002,0.033l0.032,0.206L247.587,402.77z"
							/>
						<path d="M290.616,378.719c-0.294,0.004-0.582,0.008-0.842,0.012C290.263,378.732,290.5,378.728,290.616,378.719z"/>
						<path d="M348.588,378.221c-0.104-0.001-0.192-0.001-0.281-0.001c0.09,0.003,0.211,0.007,0.347,0.012l-0.052-0.011
							C348.596,378.221,348.596,378.221,348.588,378.221z"/>
						<path d="M317.604,378.694c-0.254-0.005-0.482-0.01-0.676-0.014C317.162,378.686,317.385,378.69,317.604,378.694z"/>
						<path d="M368.086,391.216c0.011-0.32,0.003-0.586-0.011-0.823C368.058,390.597,368.054,390.856,368.086,391.216z"/>
						<path d="M368.073,384.54l0.001,0.039C368.088,384.54,368.085,384.521,368.073,384.54z"/>
						<path d="M368.084,380.273l0.003,0.075C368.098,380.3,368.1,380.273,368.084,380.273z"/>
						<path d="M368.075,390.393c0.047-0.552,0.196-0.718,0.032-1.431l-0.022,0.142c0.038-0.428-0.026-1.061-0.032-1.557
							c-0.016,0.051-0.028,0.109-0.04,0.181c-0.004,0.249-0.009,0.578-0.017,1.087C367.961,389.417,368.04,389.81,368.075,390.393z"
							/>
						<path d="M330.243,378.422C330.307,378.452,330.755,378.437,330.243,378.422L330.243,378.422z"/>
						<path d="M335.994,378.298c-0.188-0.001-0.374-0.003-0.566-0.005C335.609,378.299,335.788,378.305,335.994,378.298z"/>
						<path d="M357.674,378.341c-0.037-0.002-0.067-0.004-0.104-0.007C357.539,378.352,357.623,378.349,357.674,378.341z"/>
						<path d="M334.906,378.292l0.521,0.001C335.268,378.287,335.101,378.283,334.906,378.292z"/>
						<path d="M351.164,378.252c-0.031-0.002-0.063-0.003-0.089-0.005C351.096,378.248,351.128,378.25,351.164,378.252z"/>
						<path d="M321.678,418.707c-0.438,0.014-0.693-0.029-1.106-0.042c-0.924,0.108,1.908,0.002,0.566,0.099
							c0.41,0,0.733-0.015,1.034-0.03l-0.585-0.103C320.778,418.671,322.128,418.666,321.678,418.707z"/>
						<path d="M247.373,408.187l0.009-0.187c-0.047,0.128-0.061,0.012-0.086,0.727c0.072,0.609,0.179-0.34,0.258,0.726
							c-0.008-0.205-0.004-0.513,0.005-0.803C247.495,409.086,247.429,408.654,247.373,408.187z"/>
						<path d="M247.559,408.649c0.002-0.012,0.003-0.019,0.005-0.031c0.008-0.05,0.017-0.101,0.025-0.155
							c0.004-0.152,0.008-0.3,0.011-0.424C247.583,408.154,247.567,408.387,247.559,408.649z"/>
						<path d="M307.206,418.661c-0.179-0.003-0.34-0.007-0.487-0.01C306.956,418.672,307.099,418.671,307.206,418.661z"/>
						<path d="M291.959,377.411c0.21-0.012,0.417-0.022,0.584-0.032C292.222,377.385,292.061,377.396,291.959,377.411z"/>
						<path d="M247.475,397.887c0.005-0.165,0.011-0.333,0.016-0.516c-0.001-0.107-0.003-0.197-0.005-0.326L247.475,397.887z"/>
						<path d="M261.997,417.305c-0.368,0.117,0.282-0.009,1.015,0.059l0.681-0.063C263.068,417.282,262.491,417.302,261.997,417.305
							z"/>
						<path d="M322.217,418.741c0-0.004,0-0.007,0.007-0.011c-0.019,0.001-0.029,0.002-0.052,0.003L322.217,418.741z"/>
						<path d="M282.166,417.279c0.116,0.006,0.219,0.011,0.329,0.017C282.429,417.289,282.326,417.283,282.166,417.279z"/>
						<path d="M247.609,404.608l0.007-2.597l-0.029,0.758C247.645,403.13,247.539,404.248,247.609,404.608z"/>
						<path d="M250.924,417.236l-0.231-0.07c-0.471,0.027-0.955,0.043-1.444,0.051l-0.704,0.006l0.003-0.045l0.002-0.141
							l0.002-0.313c0-0.418,0-0.827,0-1.225c-0.006-0.795-0.031-1.539-0.098-2.191c0.249-3.146-0.223-2.063,0-4.947l-0.036,0.097
							c0.042-9.485,0.172-19.548,0.052-28.414l0.05,0.019l0.006-1.039l0.002-0.23l0.002-0.042
							c13.321,0.003,26.323,0.006,39.546,0.009c1.321-0.046,0.524-0.156,1.663-0.212c0.495,0.005,1.613-0.001,1.619,0.06
							c-0.958,0.034-0.418,0.088-0.746,0.112c1.593-0.007,3.651,0.064,5.07-0.011l-1.189-0.079c0.553-0.033,1.421-0.011,1.921-0.007
							c-0.211,0.041,0.516,0.127,0.083,0.146c2.999-0.196,2.34,0.084,4.864,0.007c0.503-0.168,3.664-0.306,5.745-0.426l1.093,0.044
							c-1.453-0.001,0.026,0.122-1.774,0.114c1.503,0.049,2.898-0.023,4.32,0.003c-0.276-0.042-0.206-0.097,0.365-0.116
							c0.874,0.023,0.95,0.107,1.948,0.116l-0.985,0.053c0.664,0.063,1.235-0.021,1.851-0.03c0.2,0.07,1.689,0.083,1.426,0.161
							c1.343-0.096,1.818-0.042,3.264-0.103c-1.503-0.074,0.387-0.093,0.218-0.151l-1.695,0.028
							c2.389,0.047-0.777,0.013-0.598,0.132c-1.124-0.055,1.542-0.197-0.34-0.179c2.249-0.061,2.725-0.007,5.023-0.106
							c-1.388,0.022,0.266-0.078-0.479-0.114c1.761-0.005,0.437,0.042,0.981,0.119c0.958-0.004,1.311,0.064,2.192-0.024
							c1.555,0.036-0.232,0.09,0.553,0.139c-0.575,0.083-4.324-0.102-3.9,0.162c-0.811,0.003-1.8,0.104-2.969,0.098
							c1.02,0.035,2.479,0.121,3.74,0.062l0.063-0.148c0.957-0.004,1.154-0.104,1.845-0.092c-0.366,0.043,0.295,0.105,1.065,0.094
							c-0.219-0.021-0.526-0.017-0.442-0.042c1.427-0.012,1.624-0.112,3.322-0.141c-1.401-0.038-1.69-0.083-3.001-0.147
							c0.353-0.104,0.924-0.015,1.695-0.027c-0.116,0.014-0.276,0.017-0.05,0.037l0.82-0.05c1.748,0.045-0.218,0.15,1.222,0.201
							c0.995,0.087,1.363-0.049,2.127,0c-0.052-0.009-0.105-0.019-0.148-0.026c0.169,0.004,0.29,0.006,0.38,0.008
							c-0.006-0.003-0.013-0.005-0.013-0.008c0.926-0.015,1.921-0.007,2.184-0.084c0.098,0.035,0.812-0.011,1.113-0.034
							c0.518-0.031,1.754-0.123,2.524,0.002h-0.058c1.155,0.016,2.055,0.055,1.806,0.097l1.863,0.031l-0.2,0.101
							c1.697-0.027,1.528-0.086,2.692-0.19c1.216,0.06,3.343,0.012,4.146-0.026c0.135,0,0.338,0,0.677-0.001l-0.709-0.039
							c1.324,0.004,1.164-0.05,2.038-0.05c-0.182-0.01-0.207-0.016,0.281,0.001c0.147,0.002,0.308,0.004,0.502,0.007
							c-0.044,0.011-0.24,0.01-0.437,0.004l0.16,0.034c1.06,0.107,1.625-0.062,2.757-0.023c-0.109,0.002-0.291,0.007-0.406,0.01
							c0.637,0.027,1.551,0.17,1.813,0.083c0.147,0.011,0.371-0.007,0.59-0.028l0.469,0.016c-0.191-0.007-0.339-0.012-0.462-0.016
							c0.29-0.029,0.566-0.065,0.604-0.044l1.627,0.019c0.309,0.015,0.727,0.002,1.065-0.013l0.276,0.042
							c0.593-0.006,0.598,0.019,0.527,0.03c2.058,0.146,3.182-0.074,5.405,0.052c0.424-0.07-0.495-0.102-0.565-0.14
							c0.347-0.054,1.618-0.102,2.256-0.14c0.324,0.031,0.87,0.063,1.438,0.094c0.272,0.017,0.55,0.033,0.81,0.049
							c0.182,0.017,0.333,0.033,0.442,0.052c-0.038,0.321-0.079,0.439-0.127,0.375c0,0.157,0,0.27,0.001,0.347
							c0.001,0.111,0.004,0.171,0.009,0.194c0.008,0.047,0.021-0.054,0.035-0.182c0.015-0.142,0.03-0.278,0.046-0.298
							c0.016-0.032,0.031-0.057,0.043,0.128l-0.005,0.21c0.005-0.243,0.015-0.364,0.026-0.479c0.015-0.131,0.028-0.252,0.042-0.365
							c-0.092-0.018-0.175-0.034-0.251-0.049c-0.025-0.027,0.119-0.047,0.36-0.061c0.013,0.188,0.02,0.452,0.022,0.714
							c-0.003,0.296-0.006,0.569-0.007,0.731l-0.107-0.348c0.037,1.69,0.198,1.338,0.306,2.39c-0.042,1.346-0.14,0.571-0.235,0.855
							l0.026,1.414h-0.08c0.021,0.918,0.097,1.132,0.064,2.403c-0.075-0.919-0.075,1.907-0.177,0.637
							c-0.027,0.705,0.129,0.91,0.021,1.271c0.086,0.49,0.043-0.634,0.069-0.99c0.124-0.288,0.06,1.551,0.092,2.398
							c-0.064,0.071-0.075-0.565-0.118,0.432c0.049,0.205,0.086,0.84,0.027,1.406c0.08,0,0.016,1.132,0.011,1.697
							c0.016-0.637,0.075-1.556,0.145-1.14c0.032,0.494,0.049,0.921,0.038,2.05l0.037-0.777c0.118,0.986-0.085,1.628-0.048,2.97
							c-0.048-0.565-0.048-0.92-0.107-1.413c0.03,0.641,0.088,1.844,0.135,2.826l-0.118,1.132c0.06,0.141-0.005,1.272,0.075,1.272
							c-0.054,1.407-0.097-1.132-0.155-1.272c-0.054,1.767,0.134,1.414,0.011,3.109l-0.075-0.563c-0.005,0.563,0.038,1.694,0,1.766
							c0.027,0,0.017-0.284,0.017-0.637c0.161,0.348,0.112,2.608,0.279,2.398l0.011-0.779c0.032,1.194,0.145,2.045,0.086,2.963
							c-0.054,0.706-0.112-0.495-0.155-0.913c-0.011,1.124,0.183,0.913,0.166,2.256c0.027-0.706,0.086-0.571,0.129-0.147
							c0.011-0.777,0.043-2.398-0.027-2.113l-0.016,0.281c-0.043-0.071-0.06-0.495-0.081-0.706c0-1.062,0.075-0.494,0.107-0.707
							c0.026-1.767-0.166-0.144-0.161-1.761l0.032-0.211c-0.043-0.778-0.049-1.979-0.15-2.192c0.107-0.708-0.043-1.832,0.021-2.608
							c0.236-0.147-0.016,2.75,0.113,3.669c0.049-0.848,0.113,0.485,0.167,0.841l-0.103-2.678c0.032-0.214,0.15-0.998,0.064-1.484
							l-0.006,0.21c-0.026-1.062-0.123-0.775-0.091-1.694c0.021-0.143,0.059,0.14,0.075,0.21c0.021-0.847-0.054-0.705-0.075-1.271
							c0.021-0.847,0.097,0.425,0.123-0.283c-0.092-0.982,0.021-1.554,0.016-2.405c-0.134,0.362-0.183-3.383-0.301-1.546
							l-0.092-2.042c0.07-0.638,0.188,1.405,0.301,0.84l-0.005,1.626c0.167-0.269-0.108-3.406,0.077-4.484
							c0.008-0.868-0.016-0.655,0.067-2.301l-0.149,0.282c0.034-0.854,0.115-1.13,0.143-1.169c-0.01-0.5-0.006-0.95,0.001-1.414
							c0.021,0.122,0.042,0.295,0.05,0.598c0.082-0.643,0.052-0.828,0.008-1.053c-0.038-0.347-0.033-0.874-0.031-1.408l0.055,0.481
							c-0.012-0.326-0.028-0.727-0.055-0.763c-0.005-0.221-0.009-0.429-0.014-0.633c-0.025,0.144-0.112,0.496-0.151,1.261
							c0.026-1.436,0.049-2.646,0.071-3.849c-0.341-0.01-0.68-0.02-1.022-0.03c-0.268-0.016-0.537-0.031-0.815-0.048
							c0.063-0.043,0.771-0.097,0.559-0.103c-0.848-0.021-1.768,0.054-1.69,0.118c-0.192,0.003-0.339,0.005-0.468,0.007
							c-0.162-0.037-0.361-0.077-0.764-0.083c-0.092-0.014-0.244-0.025-0.534-0.03c-0.284,0.118-1.908,0.059-2.261,0.112
							c0.383,0.013,0.853,0.012,1.329,0.008c-0.683,0.078-1.292,0.169-1.819,0.105c1.267-0.075-1.35-0.123,0.558-0.156
							c-1.341-0.149-0.699,0.107-2.119,0.055l-0.918-0.06c0.141-0.086,1.485-0.043,1.271-0.075l-0.637,0.011
							c0.637-0.064,3.04-0.021,4.519-0.118l-2.968-0.048c-3.741,0.103-8.407-0.016-11.581,0.173l0.135-0.002
							c-0.056,0.008-0.082,0.024-0.127,0.057l-0.143-0.021l-0.628,0.065c-0.715-0.081-2.051-0.097-3.188-0.161
							c0.714,0.054,0.714,0.054,0.785,0.118c-0.143,0.086-0.253,0.122-1.313,0.091c-0.012-0.062,0.644-0.06-0.139-0.108
							c0.403,0.03,0.044,0.073-0.419,0.081c-0.598-0.04-1.593-0.048-1.605-0.109c0.276-0.017,0.5,0.004,0.687,0.014
							c0.276-0.017-1.123-0.056-0.303-0.105l-1.078,0.018c-0.63-0.052,0.418-0.081,0.167-0.113
							c-1.794,0.041-2.713,0.182-4.337,0.224c0.076-0.032,0.094-0.169,0.076-0.13c-1.249-0.041-2.68,0.148-4.102,0.16
							c0.209-0.041,0.741-0.024,1.172-0.044c-4.35-0.052-7.911-0.055-11.99-0.185l-1.062,0.14l-1.065-0.093
							c-4.293-0.09-7.588,0.001-11.67,0.043c-1.271,0.009-0.763-0.098-1.361-0.138c-2.79-0.016-3.471,0.143-6.129,0.174
							c0.366-0.043,0.99-0.163-0.155-0.169c-0.214,0.04-0.353,0.104-1.076,0.079l0.367-0.043c-0.66-0.063-1.298-0.004-2.666-0.03
							c-2.416,0.003-4.722,0.102-6.709,0.257c-2.137-0.015,0.222-0.151-0.184-0.182c1.507,0.052,1.047-0.024,1.375-0.073
							c-0.798,0.04-1.762,0.064-2.172-0.036c-1.111,0.006-1.613,0.002-2.711,0.069c0.553-0.034,1.026,0.02,0.508,0.065
							c-0.908-0.035-3.222,0.003-3.093-0.122c-5.262,0.001-11.148,0.003-16.784,0.004c-0.95,0.064,0.721,0.025,0.199,0.07
							c-1.381,0.084-1.091-0.043-2.198,0.023l0.457-0.068c-1.645-0.01-3.393,0.116-4.986,0.18c0.264-0.078-1.31-0.064,0.014-0.111
							c-0.779,0.014-1.725-0.334-2.327-0.263l0.878,0.323c-0.043,0.032-1.136,0.013-1.027,0.034
							c-0.681-0.064-1.516-0.14-1.987-0.139c-0.23-0.082,0.954-0.064,1.602-0.063c0.097-0.137-2.185-0.088-1.245-0.213
							c-1.39,0.022,0.198,0.069-0.633,0.12l-1.212-0.029l0.936,0.046c-1.012,0.041-1.359,0.146-2.709,0.069l-1.401,0.133
							c-0.142-0.107-1.022-0.02-1.743-0.045l0.452-0.068c-0.958,0.003-1.33-0.016-1.929-0.055c0.54-0.095,0.868,0.022,1.099-0.067
							l-1.052-0.031c0.005,0.061-0.665,0.108,0.089,0.146c-0.31,0.049-1.062,0.095-1.687,0.13c0.016,0.433,0.033,0.92,0.055,1.549
							c0.012,0.44,0.018,0.982,0.015,1.68c-0.104,1.106-0.092-1.189-0.196-0.729c-0.044,2.541,0.271,3.106,0.259,4.593
							c-0.043,1.894,0.054,1.785,0.061,3.706c-0.071-0.61-0.077,1.344-0.144,1.696l-0.074-0.759
							c0.022,0.584-0.005,1.145-0.058,0.972c0.096-0.108,0.09,2.492,0.136,3.815l0.083-0.231c0.027,1.035,0.079,2.47,0.058,3.566
							c0.026,1.632,0.099,1.261,0.189,2.519c-0.074,0.695-0.162,0.619-0.251,0.388c0.042-0.438,0.017-1.177,0.042-1.896
							c-0.071-2.063-0.244-3.668-0.204-5.727c-0.199-0.893,0.023,1.389-0.047,2.389c-0.012-0.029-0.016-0.102-0.018-0.178
							c-0.002,0.089-0.004,0.166-0.006,0.25c-0.024-0.737-0.056-1.94-0.157-2.14c0.02,1.234,0.198,0.895,0.113,2.429
							c0.056,1.137-0.101,2.063-0.115,2.751c0.075,0.757,0.234,0.789,0.204,2.652l-0.112-0.815
							c-0.002,2.108,0.164,0.989,0.158,2.942c0.013-0.688,0.109,0.663,0.113-0.643c0.059,0.643,0.071,2.063,0.039,3.124
							c0.017,0.276,0.038,0.058,0.076,0.108c0.077-1.174-0.076-1.855,0.036-2.819l-0.12-0.816c0.043-1.091,0.14-1.202,0.188-0.534
							c-0.005-0.307-0.022-0.577-0.001-0.802c0.181-0.187-0.064,1.311,0.089,1.689l-0.013-0.771
							c0.117-0.334,0.103,1.801,0.095,2.795c-0.055,1.125-0.075,2.153-0.161,2.229l-0.036-1.51c-0.068,0.783,0.04,1.929,0.036,2.808
							c-0.011,0.058-0.02,0.142-0.026,0.245c0.008-0.045,0.015-0.071,0.023-0.071c-0.004,0.187-0.015,0.353-0.035,0.495
							c-0.004,0.771,0.047,1.902,0.02,2.621l0.076-0.09l-0.043-0.097c0.003-0.706,0.05-1.664,0.106-1.13
							c0.053,1.593-0.093,1.914-0.16,2.293c-0.116-0.366,0.001-1.555-0.039-2.364c-0.115,0.487-0.012,1.619-0.088,3.265
							c-0.126-0.655,0.002-1.908-0.114-2.27c-0.022,1.325,0.068,1.672,0.036,3.066c-0.058-0.179-0.064-1.537-0.139-1.447
							l-0.036,0.895c-0.007-2.197-0.157,0.385-0.188-1.329c-0.052,0.809,0.103,1.129,0.023,2.279
							c0.055-0.32,0.155-1.239,0.205-0.139l-0.037,1.244c-0.061,0.521-0.135-1.298-0.186-0.487l0.043,1.303
							c0.038-0.044,0.057-0.668,0.108-0.276c-0.041,0.799,0.145,1.063,0.201,2.485c0,0.037,0,0.074,0,0.105
							c0.488,0.004,0.923,0.009,1.283,0.012c0.247,0.008,0.44,0.021,0.561,0.042c1.779-0.111,4.034-0.107,5.674-0.213
							c-1.119,0.075,0.044,0.129,0.713,0.186c-1.288,0.016-1.297,0.134-1.208,0.21c0.784-0.013,1.297-0.135,0.901-0.174
							c1.309,0.048,0.903-0.082,2.054-0.003c0.746,0.041-0.373,0.117-0.116,0.161c1.415,0.006,0.385-0.144,1.921-0.115
							c-0.084,0.016-0.224,0.021-0.103,0.042c0.83,0.025,1.722-0.03,1.9-0.089c0.882,0.154,2.488-0.017,2.314,0.133
							c2.005-0.04-0.299-0.082,0.097-0.134c0.821-0.066,2.339-0.012,2.813,0.012c-0.495,0.003-0.949,0.044-1.427,0.021l0.423,0.104
							c2.496,0.074,1.583-0.235,3.993-0.146c-1.242,0.055-0.413,0.079-1.029,0.152c0.374-0.026,2.261,0.003,1.119-0.076
							c0.903,0.02,1.532,0.033,2.158,0.046c0.804-0.04,1.676-0.068,2.145-0.137c1.268,0.011,2.206,0.085,2.811,0.13
							c2.666-0.075,5.127,0.054,7.935-0.026l-0.207-0.007c2.179,0.02-0.964-0.138,1.299-0.134c-0.303,0.127,1.356,0.086,2.088,0.153
							c2.776,0.065,4.801-0.094,7.358-0.008c-0.021,0.026-0.187,0.059-0.681,0.062c1.953,0.04,3.527,0.015,5.288,0.021l-0.076,0.016
							c2.822,0.104,5.385-0.021,8.307-0.052c-0.237,0.017-0.299,0.064-0.482,0.081c1.472,0.029,3.825,0.048,4.859-0.068
							c1.748,0.125,1.157-0.038,3.405,0.083c0.129,0.022-0.223,0.021-0.373,0.026c1.105,0.042,1.889,0.028,3.007,0.044
							c2.466-0.081,3.077-0.245,5.945-0.196c0.146,0.174-1.763,0.043-1.826,0.181c0.571-0.03,1.066-0.065,1.856-0.024
							c-0.474,0.067-0.103,0.043-0.43,0.105c0.302,0.023,0.91-0.022,1.441-0.071c0.532-0.049,0.98-0.093,0.98-0.093
							c0.033-0.033-0.174-0.052-0.74-0.047c0.669-0.106,2.816-0.009,4.205-0.052c-0.451-0.003-1.87-0.036-1.338-0.118
							c1.863,0.036,2.481-0.13,3.784-0.199c1.716,0.078-1.266,0.146-0.942,0.268c0.287,0.044,0.977,0.141,0.256,0.188
							c1.542,0.025,2.653-0.078,4.029-0.104l-0.038,0.034c1.921-0.015,3.971-0.164,5.584-0.096l-0.855-0.039
							c0.315-0.021,1.284-0.011,1.818-0.08c-0.058,0.057,1.195,0.108,0.682,0.155c0.854-0.183,4.369-0.111,5.327-0.284
							c0.514,0.046,0.103,0.12-0.053,0.161c-1.213-0.016-1.624-0.052-2.262,0.021c1.009-0.003,1.748,0.044,1.593,0.086
							c1.011-0.113,3.414-0.158,3.922-0.272c0.737,0.058,1.439,0.088,1.182,0.183c3.095-0.059-1.529-0.292,1.966-0.291
							c1.593,0.092-1.555,0.125,0.643,0.156l-0.405,0.015c1.587,0.244,1.113-0.174,2.91-0.166c0.24,0.133-1.252,0.095-0.012,0.19
							c1.646-0.034,2.365-0.23,4.011-0.188l-0.258,0.057c1.054,0.002,3.097,0.005,4.146,0.006c0.05,0.026-0.104,0.022-0.303,0.03
							c1.939,0.05,0.81-0.068,2.397,0.023l0.455-0.064c-0.798-0.046-2.34-0.11-3.348-0.035c1.008-0.075-1.58-0.168-1.08-0.281
							l-0.199,0.046c-2.633-0.195-6.026-0.22-9.367-0.293c-2.107,0.136-3.587-0.055-5.849,0.039
							c-0.353,0.155-0.423,0.031-2.364,0.063c1.028-0.02,0.122-0.118-0.527-0.139c-0.38,0.04-0.841,0.055-1.304,0.068
							c-0.392-0.053-2.84-0.178-3.734-0.072c-1.182-0.05,0.276-0.05,0.534-0.082c-0.481-0.08-0.963,0.063-1.355,0.009
							c0,0,0.019-0.017,0.143-0.024c-1.809,0.006-2.888-0.034-4.77-0.054c-0.155,0.152-1.85,0.057-2.687,0.111
							c0.271-0.049-1.059-0.057-1.593-0.086l-1.009,0.113c-0.997,0.097-1.388-0.067-2.678-0.016l0.312,0.027
							c-0.944,0.046-3.424-0.046-4.35-0.128c-8.707,0.298-13.468-0.167-22.644-0.086c-0.597,0.046,0.437,0.077-0.031,0.145
							c-0.934,0.007-1.145,0.008-1.992,0.014c0.75,0.041,0.629-0.01,0.534,0.032l1.299-0.043c0.063,0.012-0.08,0.016,0.043,0.038
							c0.437-0.015,0.95-0.045,1.511-0.037c-0.804,0.04-1.029,0.152-2.129,0.109c0.084-0.016,0.226-0.021,0.516-0.03
							c-0.908-0.009-0.953,0.045-1.635,0.016c-0.833-0.025-0.629,0.01-0.736-0.039l-2.59-0.061
							c-1.292,0.134-2.885,0.006-3.303-0.007c0.282-0.101,1.716-0.03,2.353-0.13l-0.935-0.073l-0.055,0.08l-1.33-0.021l0.075-0.016
							c-0.157,0.031-0.32,0.063-0.66,0.035c-0.058-0.012-0.188-0.033-0.04-0.038l-0.95,0.044c0.553-0.083-0.833-0.024-0.695-0.121
							c-3.096-0.048-3.937,0.13-6.662-0.001c0.442,0.045-0.864,0.151-1.701,0.134c-0.484-0.023-0.606-0.045-0.299-0.082l-1.098,0.05
							c-1.376-0.15-2.719-0.054-4.735-0.105l0.104-0.042c-0.747,0.05-1.552,0.09-2.675,0.074l0.205-0.085
							c-1.373-0.06-1.048,0.179-2.564,0.124c0.008,0.092,0.963,0.139,1.111,0.225c-0.357-0.093-1.985-0.106-1.606-0.04
							c-1.511,0.037-1.047-0.003-1.176-0.024l-0.887,0.056c-1.061-0.005-0.34-0.12,0.052-0.172
							c-0.989,0.098-2.068,0.029-3.192,0.014l0.456-0.041l-1.479-0.017c-0.964,0.071-2.314,0.076-3.559,0.039l0.86-0.12
							c-0.874-0.063-0.45,0.041-0.681,0.062c-1.381,0.059-1.677-0.022-2.407-0.091C255.012,417.379,252.819,417.057,250.924,417.236
							z M357.146,378.284l-0.205-0.019C357.404,378.245,357.668,378.226,357.146,378.284z M344.998,378.25
							c1.464-0.047,0.999,0.01,1.11,0.043c-1.44-0.033-2.242,0.005-3.516-0.034c0.204,0.024,0.244,0.057,0.31,0.076
							c-0.508-0.006-1.016-0.032-1.189-0.093C342.342,378.121,345.632,378.319,344.998,378.25z M368.111,382.566
							c-0.008-0.053-0.017-0.111-0.026-0.172c0,0,0,0,0-0.008L368.111,382.566z M365.108,377.763c-0.103-0.025-0.281-0.04-0.5-0.05
							C364.742,377.745,364.872,377.771,365.108,377.763z M350.695,377.614c-0.333-0.05-1.093-0.035-1.646-0.023
							C349.31,377.595,349.773,377.602,350.695,377.614z M259.767,377.669c0.437-0.02,1.258-0.07,0.507-0.106
							c-0.359,0.043-1.055-0.032-1.359,0.034c-0.042-0.004-0.049-0.004-0.075-0.006
							C259.278,377.632,259.638,377.666,259.767,377.669z M247.861,408.746c-0.049-0.078-0.103-0.399-0.14-0.193
							c0.001-0.036,0.002-0.083,0.004-0.122c-0.017,0.108-0.031,0.2-0.042,0.115c-0.01,0.349-0.022,0.714-0.008,0.959
							C247.837,409.622,247.862,410.357,247.861,408.746z"/>
						<path d="M247.198,394.469c0.002,0.165,0.003,0.294,0.004,0.397C247.201,394.758,247.2,394.634,247.198,394.469z"/>
						<path d="M247.676,409.434c0.01,0.031,0.026-0.379,0.044-0.881C247.701,408.654,247.684,408.899,247.676,409.434z"/>
						<path d="M367.567,406.13l-0.017-0.424l-0.048,0.848c0.054,1.414,0.123,1.484,0.204,1.832c-0.075-1.267-0.038-2.043-0.06-3.669
							L367.567,406.13z"/>
						<path d="M368.104,405.411c0.021-0.142,0.075-0.496,0.081-0.708l-0.049-0.211L368.104,405.411z"/>
						<path d="M368.339,388.667l-0.043,1.342C368.339,390.434,368.414,388.877,368.339,388.667z"/>
						<path d="M367.49,394.623l0.054,0.705c0.043-0.634,0.038-1.484-0.021-1.623C367.555,394.552,367.49,393.915,367.49,394.623z"/>
						<path d="M368.35,385.062c-0.097-0.419,0.043-1.343-0.049-1.619C368.328,383.795,368.253,384.995,368.35,385.062z"/>
						<path d="M367.431,386.004c-0.092,0.426-0.011,1.131-0.032,1.981C367.398,387.277,367.495,386.288,367.431,386.004z"/>
						<path d="M367.902,377.692c0.035-0.017,0.106-0.028,0.21-0.037c0.015,0.134,0.021,0.366,0.021,0.65
							c-0.003,0.244-0.006,0.53-0.01,0.83c-0.013-0.103-0.024-0.194-0.036-0.291c-0.012-0.114-0.022-0.271-0.028-0.454
							c0.041,1.128,0.043,1.194,0.075,2.089c0.021-0.427,0.048-0.951,0.069-1.361c0.017-0.243,0.031-0.448,0.041-0.599
							c0.017-0.182,0.034-0.278,0.056-0.231c-0.019-0.251-0.039-0.521-0.058-0.763C367.499,377.581,367.157,377.646,367.902,377.692
							z"/>
						<path d="M367.419,383.961c-0.026,0.708-0.091,1.132-0.085,1.979c0.048-0.147,0.118-0.43,0.106-1.42l0.081,0.354
							C367.58,383.955,367.414,385.234,367.419,383.961z"/>
						<path d="M363.759,377.506l0.427,0.037c1.007-0.064,2.222-0.032,2.856-0.135C365.77,377.414,364.342,377.457,363.759,377.506z"
							/>
						<path d="M367.569,380.492l-0.113-0.135c-0.016,0.988,0.038-0.071,0.064,0.282c-0.016,0.282-0.026,0.706-0.005,0.913
							C367.499,380.429,367.606,381.48,367.569,380.492z"/>
						<path d="M366.998,378.322l-1.233,0.049l0.989,0.123C367.611,378.451,366.877,378.424,366.998,378.322z"/>
						<path d="M365.474,378.247l-0.142-0.021l-1.9,0.167C364.563,378.322,364.633,378.333,365.474,378.247z"/>
						<path d="M342.439,377.515c-0.213,0.049,0.9,0.108,0.424,0.055C343.077,377.529,341.592,377.467,342.439,377.515z"/>
						<path d="M346.982,378.418c-0.541-0.037-2.314,0.032-3.091,0.065C344.816,378.46,347.111,378.483,346.982,378.418z"/>
						<path d="M343.575,378.496c0.063-0.002,0.181-0.007,0.316-0.013C343.751,378.489,343.65,378.493,343.575,378.496z"/>
						<path d="M310.927,378.745c-0.083,0.001-0.166,0.005-0.236,0.013C310.772,378.753,310.843,378.749,310.927,378.745z"/>
						<path d="M311.706,378.717c0.527,0.016,1.572-0.014,1.753-0.065c-0.829,0.024-1.562,0.039-2.532,0.094
							C311.292,378.739,311.738,378.775,311.706,378.717z"/>
						<path d="M304.208,378.691c0.389-0.03,0.923-0.015,0.79-0.062C304.777,378.608,303.948,378.659,304.208,378.691z"/>
						<path d="M253.7,377.282c-0.721-0.025-1.145-0.006-0.95,0.064C253.558,377.346,253.116,377.304,253.7,377.282z"/>
						<polygon points="251.824,377.362 251.727,377.327 251.253,377.273 						"/>
						<path d="M247.042,378.916c-0.005-0.025-0.011-0.046-0.017-0.128c-0.004-0.106-0.009-0.232-0.014-0.358
							c0.002,0.135,0.005,0.265,0.007,0.378c0.003,0.06,0.005,0.111,0.007,0.146C247.032,379.021,247.037,379.026,247.042,378.916z"
							/>
						<path d="M247.008,378.154c0.001,0.085,0.003,0.188,0.004,0.275C247.011,378.342,247.009,378.239,247.008,378.154z"/>
						<path d="M247.03,377.541l-0.037-0.14c0.003,0.161,0.009,0.463,0.015,0.753C247.005,377.894,247.01,377.621,247.03,377.541z"/>
						<path d="M247.03,380.408l0.107-0.948c-0.053-0.985-0.055,1.122-0.169,0.15L247.03,380.408z"/>
						<path d="M247.06,383.712c-0.035,0.905,0.134,2.21,0.007,2.724c0.066,2.563,0.211-0.592,0.26,2.342
							c0.065-2.773-0.244-1.41-0.174-3.871C247.074,386.096,247.09,384.108,247.06,383.712z"/>
						<path d="M247.273,383.275c-0.063-0.147-0.069,1.002-0.027,1.36C247.253,384.302,247.342,383.725,247.273,383.275z"/>
						<polygon points="247.117,388.723 247.068,389.507 247.109,389.713 						"/>
						<path d="M247.091,391.696l-0.073-0.763C247.046,391.185,247.041,392.329,247.091,391.696z"/>
						<path d="M247,395.837c-0.025,0.718,0.146,1.369,0.108-0.147l-0.007,0.346C247.075,395.945,247.015,396.762,247,395.837z"/>
						<path d="M247.267,405.417c0.003-0.495-0.018-1.079-0.053-0.976l0.034,1.354L247.267,405.417z"/>
						<path d="M247.681,405.217c0.103-0.455-0.009-1.271,0.025-2.171C247.686,404.068,247.672,403.946,247.681,405.217z"/>
						<path d="M247.12,406.965c-0.043-0.365-0.015-0.932-0.008-1.271C247.053,405.859,247.068,406.791,247.12,406.965z"/>
						<path d="M247.155,409.125c-0.042,0.443-0.058-0.097-0.086,0.237c-0.046,0.95-0.041,1.948,0.017,2.487
							c0.044-0.25,0.164-0.592,0.216-0.199c-0.037-1.517-0.228-2.293-0.081-3.032l-0.181-1.267
							C247.011,408.564,247.167,408.283,247.155,409.125z"/>
						<path d="M247.498,406.06l-0.061,0.813c0.059-0.163,0.069,0.453,0.088,0.885C247.658,407.544,247.506,406.523,247.498,406.06z"
							/>
						<path d="M247.235,417.776c0.002,0.25,0.005,0.499,0.005,0.752l1.802-0.025l-0.634-0.008c-0.386,0.008-0.772,0.016-1.151,0.016
							L247.235,417.776z"/>
						<polygon points="248.298,418.575 248.369,418.613 249.787,418.544 						"/>
						<polygon points="250.229,418.62 250.025,418.614 249.011,418.647 						"/>
						<path d="M253.822,418.646l-0.316-0.055c-0.436,0.015-1.31-0.048-1.227,0.027C252.659,418.593,253.564,418.602,253.822,418.646
							z"/>
						<path d="M265.725,417.234c-0.312,0.036-0.125,0.069,0.062,0.103l0.495-0.095C266.135,417.247,265.845,417.256,265.725,417.234
							z"/>
						<path d="M267.806,417.388l1.278-0.107c-1.473-0.017-1.679,0.068-2.963,0.085c0.544,0.034,1.305-0.043,1.993-0.014
							L267.806,417.388z"/>
						<path d="M293.417,417.471c-0.116,0.069,0.173,0.06-0.777,0.104c1.303-0.043,2.422-0.028,3.914-0.038
							c-0.253-0.044,0.86-0.12,0.287-0.101l-1.663,0.041l0.25-0.047C294.259,417.377,294.665,417.508,293.417,417.471z"/>
						<path d="M360.334,418.206c-0.154,0.033,0.046,0.064,0.247,0.095C361.574,418.263,360.135,418.213,360.334,418.206z"/>
					</g>
				</g>
			</g>
		</g>
	</g>
	<g>
		<rect x="250.611" y="392.123" fill="none" width="117.387" height="19.937"/>
		<text transform="matrix(1 0 0 1 285.4336 403.4824)" fill="#1A1A1A" font-family="'SourceSansPro-Regular'" font-size="16">ajouter</text>
	</g>
</g>
<polygon fill-rule="evenodd" clip-rule="evenodd" fill="#D88F48" points="367.742,391.992 346.242,378.492 367.742,378.492 "/>
<g>
	<rect x="1" y="1" fill="#FFFFFF" width="120" height="39"/>
	<g>
		<g>
			<g>
				<g>
					<path fill="#D88F48" d="M121.186,0.826c-0.088-0.477-0.028,0.161-0.018,0.745L121.186,0.826z"/>
					<path fill="#D88F48" d="M121.167,1.571l-0.014,0.527C121.168,1.959,121.17,1.771,121.167,1.571z"/>
					<path fill="#D88F48" d="M121.106,6.485c-0.069-1.13,0.027-2.477-0.081-3.183C120.961,4.441,120.988,6.203,121.106,6.485z"/>
					<polygon fill="#D88F48" points="121.175,4.788 121.117,4.646 121.208,5.637 					"/>
					<polygon fill="#D88F48" points="121.229,4.08 121.208,4.222 121.268,5.771 					"/>
					<path fill="#D88F48" d="M121.064,10.306l-0.017-1.132c0.08-1.062,0.107,0.701,0.162-0.008
						c-0.001-1.414-0.167-0.487-0.141-2.255c-0.075,0.142,0.001,2.83-0.117,2.545C120.914,10.941,121.021,9.528,121.064,10.306z"/>
					<path fill="#D88F48" d="M83.24,40.952c-0.06-0.004-0.108-0.007-0.16-0.011C83.143,40.954,83.208,40.962,83.24,40.952z"/>
					<path fill="#D88F48" d="M64.564,41.035c-0.259-0.008-0.515-0.016-0.764-0.024c0.076,0.012,0.173,0.023,0.302,0.032
						L64.564,41.035z"/>
					<path fill="#D88F48" d="M94.933,40.73c0.271,0.01,0.515,0.02,0.738,0.029C95.531,40.742,95.312,40.73,94.933,40.73z"/>
					<path fill="#D88F48" d="M0.964,15.694c0.008,0.045,0.02,0.083,0.035,0.097C1,15.784,1,15.771,1.001,15.758L0.97,15.552
						L0.964,15.694z"/>
					<path fill="#D88F48" d="M43.651,41.219c-0.294,0.004-0.583,0.008-0.842,0.012C43.298,41.233,43.536,41.228,43.651,41.219z"/>
					<path fill="#D88F48" d="M101.671,40.72c-0.103,0-0.192,0-0.281,0c0.09,0.003,0.211,0.007,0.347,0.012l-0.052-0.011
						C101.679,40.72,101.679,40.72,101.671,40.72z"/>
					<path fill="#D88F48" d="M70.663,41.195c-0.254-0.005-0.483-0.01-0.677-0.015C70.22,41.186,70.443,41.19,70.663,41.195z"/>
					<path fill="#D88F48" d="M120.932,27.625c-0.011,0.32-0.003,0.586,0.01,0.823C120.96,28.244,120.963,27.984,120.932,27.625z"/>
					<path fill="#D88F48" d="M120.944,34.306l-0.001-0.04C120.929,34.306,120.933,34.325,120.944,34.306z"/>
					<path fill="#D88F48" d="M120.934,38.576L120.93,38.5C120.92,38.55,120.918,38.576,120.934,38.576z"/>
					<path fill="#D88F48" d="M120.942,28.448c-0.046,0.553-0.197,0.719-0.032,1.433l0.022-0.143
						c-0.038,0.429,0.027,1.062,0.032,1.558c0.016-0.051,0.029-0.109,0.04-0.18c0.004-0.25,0.009-0.579,0.018-1.087
						C121.056,29.425,120.978,29.033,120.942,28.448z"/>
					<path fill="#D88F48" d="M83.312,40.921C83.375,40.952,83.824,40.937,83.312,40.921L83.312,40.921z"/>
					<path fill="#D88F48" d="M89.067,40.798c-0.188-0.002-0.374-0.003-0.567-0.005C88.682,40.799,88.861,40.805,89.067,40.798z"/>
					<path fill="#D88F48" d="M110.765,40.841c-0.037-0.002-0.067-0.004-0.103-0.006C110.63,40.852,110.714,40.849,110.765,40.841z"
						/>
					<path fill="#D88F48" d="M87.979,40.792l0.521,0.001C88.34,40.788,88.173,40.783,87.979,40.792z"/>
					<path fill="#D88F48" d="M104.25,40.752c-0.031-0.001-0.063-0.003-0.089-0.004C104.181,40.749,104.214,40.75,104.25,40.752z"/>
					<path fill="#D88F48" d="M75.106,1.541c-0.438,0.014-0.694-0.029-1.107-0.042c-0.925,0.109,1.909,0.003,0.567,0.1
						c0.41-0.001,0.734-0.015,1.035-0.031l-0.585-0.102C74.207,1.505,75.557,1.5,75.106,1.541z"/>
					<path fill="#D88F48" d="M1.179,10.273l-0.009,0.187c0.047-0.128,0.061-0.012,0.086-0.728c-0.072-0.609-0.179,0.341-0.258-0.726
						C1.006,9.212,1.002,9.52,0.993,9.81C1.057,9.373,1.123,9.804,1.179,10.273z"/>
					<path fill="#D88F48" d="M0.993,9.81C0.991,9.821,0.99,9.828,0.987,9.84c-0.008,0.05-0.017,0.102-0.025,0.156
						c-0.004,0.153-0.008,0.301-0.011,0.425C0.969,10.305,0.984,10.073,0.993,9.81z"/>
					<path fill="#D88F48" d="M60.623,1.496c-0.179-0.004-0.34-0.007-0.487-0.01C60.373,1.505,60.515,1.505,60.623,1.496z"/>
					<path fill="#D88F48" d="M44.996,39.912c0.21-0.012,0.417-0.023,0.584-0.032C45.258,39.885,45.098,39.897,44.996,39.912z"/>
					<path fill="#D88F48" d="M1.077,20.581c-0.005,0.165-0.011,0.333-0.016,0.516c0.001,0.107,0.003,0.198,0.005,0.326L1.077,20.581
						z"/>
					<path fill="#D88F48" d="M15.375,0.139c-0.368,0.116,0.282-0.01,1.016,0.058l0.682-0.063
						C16.448,0.117,15.871,0.136,15.375,0.139z"/>
					<path fill="#D88F48" d="M75.646,1.575c0-0.003,0-0.007,0.007-0.01c-0.019,0.001-0.03,0.001-0.052,0.002L75.646,1.575z"/>
					<path fill="#D88F48" d="M35.562,0.114c0.116,0.005,0.219,0.01,0.329,0.016C35.825,0.123,35.722,0.117,35.562,0.114z"/>
					<path fill="#D88F48" d="M0.943,13.854l-0.007,2.598l0.029-0.758C0.907,15.333,1.013,14.214,0.943,13.854z"/>
					<path fill="#D88F48" d="M4.294,0.071L4.063,0C3.532,0.031,2.985,0.046,2.434,0.053c-0.81,0-1.624,0.001-2.429,0.001
						C0.003,1.111,0.001,2.147,0,3.125c0.008,0.731,0.034,1.416,0.096,2.022c-0.249,3.148,0.223,2.065,0,4.952l0.036-0.097
						C0.089,19.496-0.041,29.566,0.079,38.44l-0.05-0.019c-0.003,0.948-0.007,1.895-0.011,2.828
						c13.843,0.003,27.354,0.006,41.094,0.009c1.322-0.046,0.525-0.156,1.665-0.211c0.495,0.004,1.614-0.002,1.62,0.06
						c-0.959,0.034-0.419,0.088-0.746,0.112c1.594-0.006,3.654,0.064,5.074-0.011l-1.19-0.079c0.553-0.033,1.422-0.011,1.923-0.007
						c-0.211,0.04,0.516,0.126,0.083,0.146c3.001-0.197,2.342,0.084,4.868,0.007c0.503-0.168,3.667-0.306,5.75-0.426l1.094,0.044
						c-1.454-0.001,0.027,0.123-1.775,0.114c1.505,0.048,2.9-0.023,4.323,0.003c-0.277-0.042-0.206-0.098,0.366-0.116
						c0.875,0.023,0.951,0.107,1.949,0.116l-0.985,0.053c0.664,0.063,1.235-0.021,1.852-0.03c0.2,0.07,1.691,0.083,1.428,0.161
						c1.344-0.096,1.82-0.042,3.267-0.103c-1.505-0.074,0.386-0.093,0.218-0.151l-1.696,0.028c2.392,0.047-0.777,0.012-0.598,0.132
						c-1.125-0.055,1.543-0.197-0.34-0.178c2.25-0.061,2.727-0.008,5.027-0.107c-1.389,0.022,0.265-0.078-0.481-0.114
						c1.762-0.004,0.438,0.042,0.982,0.119c0.959-0.003,1.312,0.065,2.195-0.023c1.555,0.036-0.233,0.09,0.553,0.138
						c-0.575,0.083-4.328-0.102-3.903,0.162c-0.811,0.003-1.802,0.104-2.971,0.099c1.021,0.034,2.481,0.121,3.743,0.061l0.063-0.148
						c0.958-0.004,1.156-0.104,1.847-0.091c-0.367,0.042,0.295,0.105,1.067,0.093c-0.22-0.021-0.527-0.017-0.443-0.042
						c1.427-0.011,1.625-0.112,3.325-0.14c-1.402-0.039-1.691-0.083-3.003-0.147c0.353-0.104,0.924-0.016,1.696-0.028
						c-0.116,0.014-0.277,0.017-0.05,0.038l0.821-0.05c1.75,0.045-0.218,0.151,1.223,0.201c0.996,0.087,1.364-0.049,2.129,0
						c-0.052-0.009-0.105-0.019-0.149-0.026c0.169,0.003,0.291,0.005,0.38,0.007c-0.005-0.002-0.013-0.004-0.013-0.007
						c0.927-0.015,1.923-0.007,2.186-0.085c0.098,0.036,0.812-0.01,1.114-0.034c0.518-0.031,1.755-0.123,2.526,0.002l-0.058,0.001
						c1.156,0.015,2.056,0.054,1.807,0.096l1.865,0.031l-0.2,0.101c1.699-0.027,1.53-0.086,2.695-0.19
						c1.217,0.06,3.345,0.011,4.149-0.026c0.135,0,0.338,0,0.677-0.001l-0.709-0.04c1.326,0.004,1.165-0.049,2.04-0.049
						c-0.182-0.01-0.208-0.015,0.281,0c0.148,0.002,0.308,0.005,0.502,0.008c-0.044,0.011-0.24,0.009-0.437,0.003l0.16,0.034
						c1.061,0.107,1.626-0.061,2.759-0.023c-0.109,0.002-0.291,0.007-0.406,0.01c0.637,0.027,1.552,0.17,1.815,0.083
						c0.147,0.011,0.371-0.006,0.59-0.028l0.469,0.015c-0.191-0.006-0.339-0.011-0.462-0.016c0.291-0.029,0.568-0.065,0.604-0.043
						l1.628,0.018c0.309,0.015,0.728,0.002,1.067-0.012l0.276,0.042c0.593-0.006,0.598,0.019,0.527,0.03
						c2.06,0.146,3.184-0.074,5.41,0.052c0.424-0.07-0.495-0.102-0.566-0.139c0.347-0.054,1.62-0.102,2.257-0.141
						c0.873,0.055,2.961,0.186,3.731,0.234c0.027-0.267,0.056-0.364,0.087-0.168c0.011-2.724-0.086,0.773-0.134-0.583l0.006-0.289
						c-0.007,0.369-0.02,0.695-0.036,0.963c-0.429-0.022-0.768-0.051-1.024-0.082c-0.084-0.038,0.362-0.063,0.867-0.075
						c-0.012-0.528-0.012-1.113-0.001-1.336l0.107,0.347c-0.038-1.691-0.199-1.338-0.307-2.392c0.042-1.347,0.14-0.571,0.236-0.856
						l-0.027-1.415h0.081c-0.021-0.919-0.097-1.133-0.065-2.405c0.076,0.92,0.075-1.909,0.177-0.637
						c0.027-0.706-0.128-0.911-0.021-1.272c-0.086-0.49-0.042,0.634-0.07,0.991c-0.124,0.289-0.059-1.552-0.091-2.4
						c0.064-0.071,0.075,0.566,0.118-0.432c-0.049-0.205-0.086-0.84-0.027-1.407c-0.081,0-0.017-1.132-0.012-1.698
						c-0.016,0.637-0.075,1.557-0.144,1.141c-0.032-0.495-0.048-0.922-0.038-2.052l-0.038,0.777
						c-0.118-0.986,0.085-1.628,0.048-2.972c0.048,0.566,0.048,0.92,0.107,1.414c-0.03-0.641-0.087-1.845-0.134-2.828l0.117-1.133
						c-0.059-0.141,0.005-1.273-0.075-1.273c0.054-1.409,0.097,1.133,0.156,1.273c0.053-1.769-0.134-1.416-0.011-3.112l0.075,0.563
						c0.005-0.563-0.038-1.696,0-1.767c-0.027,0-0.017,0.284-0.017,0.637c-0.161-0.348-0.112-2.61-0.279-2.4l-0.011,0.78
						c-0.032-1.195-0.145-2.046-0.086-2.965c0.053-0.707,0.112,0.495,0.156,0.914c0.011-1.125-0.183-0.914-0.167-2.258
						c-0.026,0.707-0.086,0.572-0.128,0.148c-0.011,0.777-0.043,2.4,0.027,2.115l0.016-0.282c0.043,0.071,0.059,0.496,0.081,0.706
						c0,1.063-0.075,0.495-0.107,0.708c-0.026,1.768,0.166,0.144,0.161,1.762l-0.032,0.211c0.043,0.779,0.049,1.981,0.151,2.194
						c-0.108,0.708,0.042,1.833-0.021,2.61c-0.236,0.148,0.016-2.752-0.113-3.671c-0.048,0.848-0.113-0.486-0.167-0.842l0.103,2.68
						c-0.032,0.214-0.15,0.999-0.064,1.485l0.006-0.21c0.026,1.063,0.124,0.776,0.091,1.696c-0.021,0.142-0.059-0.14-0.075-0.21
						c-0.022,0.848,0.054,0.706,0.075,1.272c-0.021,0.848-0.097-0.425-0.123,0.284c0.091,0.983-0.021,1.555-0.016,2.407
						c0.134-0.363,0.183,3.386,0.301,1.547l0.091,2.044c-0.07,0.637-0.188-1.407-0.301-0.841l0.005-1.628
						c-0.167,0.269,0.109,3.409-0.078,4.489c-0.007,0.869,0.017,0.656-0.066,2.302l0.149-0.282c-0.034,0.854-0.116,1.13-0.143,1.17
						c0.009,0.5,0.006,0.951-0.001,1.416c-0.022-0.122-0.042-0.296-0.05-0.599c-0.083,0.644-0.051,0.83-0.007,1.054
						c0.038,0.347,0.032,0.875,0.031,1.409l-0.056-0.481c0.013,0.326,0.029,0.727,0.056,0.763c0.004,0.221,0.009,0.43,0.013,0.633
						c0.026-0.143,0.113-0.496,0.152-1.261c-0.023,1.123-0.042,2.089-0.062,3.031l-0.763-0.032c-0.324-0.019-0.651-0.037-0.99-0.056
						c0.063-0.043,0.771-0.097,0.559-0.102c-0.848-0.022-1.769,0.053-1.691,0.118c-0.193,0.002-0.339,0.004-0.469,0.006
						c-0.162-0.037-0.361-0.076-0.764-0.083c-0.092-0.013-0.245-0.025-0.535-0.03c-0.284,0.118-1.909,0.059-2.262,0.113
						c0.383,0.012,0.853,0.011,1.33,0.007c-0.683,0.079-1.293,0.169-1.82,0.105c1.267-0.075-1.351-0.123,0.558-0.155
						c-1.342-0.15-0.7,0.107-2.121,0.054l-0.919-0.059c0.14-0.086,1.486-0.043,1.272-0.076l-0.637,0.011
						c0.637-0.065,3.042-0.022,4.522-0.119l-2.971-0.048c-3.744,0.103-8.413-0.015-11.59,0.173l0.135-0.002
						c-0.056,0.009-0.082,0.024-0.127,0.057l-0.143-0.021l-0.629,0.065c-0.714-0.081-2.052-0.096-3.19-0.16
						c0.715,0.053,0.715,0.053,0.785,0.117c-0.142,0.086-0.252,0.123-1.314,0.091c-0.011-0.061,0.644-0.06-0.139-0.108
						c0.404,0.03,0.044,0.073-0.419,0.081c-0.598-0.04-1.594-0.048-1.607-0.109c0.276-0.017,0.5,0.004,0.688,0.013
						c0.276-0.016-1.125-0.055-0.303-0.105l-1.08,0.017c-0.63-0.051,0.419-0.08,0.168-0.113c-1.796,0.042-2.715,0.183-4.341,0.224
						c0.076-0.033,0.094-0.169,0.076-0.129c-1.25-0.041-2.682,0.148-4.104,0.159c0.209-0.041,0.741-0.024,1.172-0.044
						c-4.353-0.052-7.917-0.054-12-0.184l-1.062,0.14l-1.067-0.093c-4.296-0.09-7.594,0.001-11.679,0.043
						c-1.272,0.009-0.764-0.098-1.363-0.137c-2.792-0.016-3.474,0.142-6.134,0.174c0.367-0.043,0.99-0.164-0.155-0.169
						c-0.214,0.04-0.353,0.104-1.076,0.079l0.367-0.043c-0.661-0.063-1.299-0.003-2.668-0.03c-2.418,0.003-4.726,0.103-6.715,0.257
						c-2.138-0.015,0.222-0.151-0.184-0.182c1.508,0.052,1.048-0.024,1.375-0.073c-0.798,0.04-1.763,0.064-2.174-0.037
						c-1.112,0.006-1.614,0.002-2.713,0.069c0.553-0.034,1.027,0.02,0.509,0.065c-0.909-0.035-3.225,0.003-3.096-0.122
						c-5.267,0.001-11.158,0.003-16.798,0.004c-0.951,0.064,0.722,0.025,0.199,0.071c-1.382,0.084-1.092-0.044-2.199,0.023
						l0.457-0.068c-1.646-0.01-3.396,0.116-4.991,0.179c0.265-0.078-1.31-0.064,0.015-0.11c-0.78,0.013-1.727-0.334-2.329-0.264
						l0.878,0.324c-0.043,0.032-1.137,0.012-1.027,0.033c-0.682-0.063-1.518-0.139-1.989-0.139c-0.23-0.082,0.955-0.064,1.603-0.063
						c0.097-0.136-2.187-0.087-1.246-0.212c-1.391,0.022,0.198,0.07-0.633,0.121l-1.213-0.029l0.937,0.046
						c-1.013,0.041-1.36,0.145-2.711,0.068l-1.402,0.134c-0.142-0.108-1.023-0.02-1.745-0.045l0.452-0.068
						c-0.959,0.003-1.331-0.015-1.93-0.055c0.54-0.095,0.868,0.022,1.1-0.067l-1.053-0.032c0.005,0.062-0.666,0.109,0.089,0.146
						c-0.53,0.049-0.455,0.095-0.73,0.13c-0.012-0.05-0.022-0.112-0.032-0.188c-0.009-0.075-0.017-0.14-0.023-0.404
						c-0.012-0.441-0.018-0.983-0.015-1.682c0.104-1.107,0.092,1.19,0.196,0.73c0.044-2.543-0.271-3.109-0.259-4.596
						c0.043-1.896-0.054-1.787-0.061-3.71c0.071,0.611,0.077-1.344,0.144-1.697l0.074,0.759c-0.022-0.584,0.005-1.146,0.058-0.973
						c-0.096,0.109-0.09-2.493-0.136-3.818l-0.083,0.231c-0.027-1.036-0.079-2.471-0.058-3.569
						c-0.026-1.634-0.099-1.262-0.189-2.521c0.074-0.695,0.162-0.619,0.251-0.388c-0.042,0.438-0.017,1.178-0.042,1.897
						c0.071,2.065,0.244,3.671,0.204,5.73c0.199,0.894-0.023-1.39,0.047-2.391c0.012,0.03,0.016,0.102,0.018,0.179
						c0.002-0.089,0.004-0.167,0.006-0.251c0.024,0.739,0.056,1.942,0.157,2.143c-0.02-1.236-0.198-0.896-0.113-2.431
						C1.344,21.927,1.5,21,1.515,20.312c-0.075-0.758-0.234-0.79-0.204-2.655l0.112,0.817c0.002-2.11-0.164-0.99-0.158-2.944
						c-0.013,0.687-0.109-0.664-0.113,0.642c-0.059-0.642-0.071-2.065-0.039-3.126c-0.017-0.276-0.038-0.058-0.076-0.108
						c-0.077,1.175,0.076,1.857-0.036,2.822l0.12,0.816c-0.043,1.093-0.14,1.204-0.188,0.535c0.005,0.308,0.022,0.578,0.001,0.803
						C0.754,18.099,1,16.6,0.846,16.222l0.013,0.771c-0.117,0.334-0.103-1.802-0.095-2.797c0.055-1.125,0.075-2.155,0.161-2.231
						l0.036,1.511c0.068-0.784-0.04-1.93-0.036-2.81c0.011-0.058,0.02-0.143,0.026-0.245c-0.008,0.045-0.015,0.071-0.023,0.071
						c0.004-0.187,0.015-0.353,0.035-0.496c0.004-0.771-0.047-1.904-0.02-2.623L0.866,7.462L0.909,7.56
						c-0.003,0.707-0.05,1.665-0.106,1.13C0.75,7.097,0.896,6.775,0.962,6.396C1.078,6.762,0.96,7.951,1,8.762
						c0.115-0.488,0.012-1.621,0.088-3.267C1.215,6.15,1.087,7.404,1.203,7.766c0.022-1.327-0.068-1.673-0.036-3.068
						c0.058,0.178,0.064,1.538,0.139,1.448L1.343,5.25C1.35,7.45,1.5,4.865,1.53,6.581c0.052-0.81-0.103-1.13-0.023-2.281
						C1.453,4.62,1.352,5.54,1.303,4.438L1.34,3.192C1.401,2.671,1.475,4.491,1.526,3.68L1.483,2.376
						C1.445,2.42,1.426,3.045,1.375,2.653C1.393,2.32,1.366,2.041,1.327,1.756L1.311,1.651L1.295,1.611L1.261,1.514
						C1.238,1.442,1.216,1.353,1.198,1.248c0.036-0.009,0.08-0.018,0.129-0.024c0.256,0.005,0.485,0.009,0.675,0.012
						c0.26,0.008,0.462,0.021,0.587,0.043c1.781-0.112,4.038-0.108,5.68-0.214c-1.12,0.076,0.044,0.129,0.714,0.186
						c-1.289,0.016-1.298,0.134-1.209,0.21c0.785-0.013,1.298-0.135,0.902-0.174c1.31,0.048,0.904-0.082,2.055-0.002
						c0.746,0.041-0.373,0.116-0.116,0.161c1.416,0.005,0.385-0.144,1.923-0.116c-0.084,0.016-0.224,0.021-0.103,0.042
						c0.83,0.025,1.723-0.03,1.902-0.089c0.882,0.154,2.489-0.017,2.316,0.133c2.007-0.04-0.299-0.082,0.097-0.134
						c0.822-0.066,2.342-0.012,2.816,0.012c-0.495,0.003-0.95,0.044-1.428,0.021l0.424,0.104c2.498,0.074,1.583-0.235,3.996-0.146
						c-1.243,0.054-0.413,0.079-1.03,0.152c0.374-0.026,2.263,0.003,1.12-0.076c0.904,0.019,1.533,0.033,2.16,0.046
						c0.805-0.04,1.678-0.069,2.146-0.137c1.269,0.011,2.208,0.085,2.813,0.13c2.668-0.075,5.131,0.053,7.941-0.027l-0.208-0.006
						c2.181,0.019-0.964-0.138,1.301-0.135c-0.303,0.127,1.357,0.086,2.089,0.154c2.779,0.065,4.805-0.093,7.364-0.008
						c-0.021,0.027-0.187,0.059-0.682,0.062c1.954,0.04,3.53,0.014,5.292,0.021l-0.077,0.016c2.824,0.104,5.39-0.021,8.314-0.051
						c-0.237,0.016-0.299,0.064-0.482,0.081c1.473,0.029,3.828,0.047,4.863-0.069c1.749,0.125,1.158-0.039,3.408,0.083
						c0.129,0.022-0.223,0.021-0.373,0.026c1.106,0.042,1.891,0.029,3.01,0.044c2.469-0.081,3.08-0.245,5.95-0.196
						c0.146,0.173-1.764,0.043-1.827,0.181c0.571-0.031,1.067-0.066,1.857-0.025c-0.474,0.067-0.103,0.042-0.43,0.106
						c0.302,0.022,0.911-0.022,1.443-0.071s0.981-0.093,0.981-0.093c0.033-0.033-0.174-0.051-0.741-0.047
						c0.669-0.106,2.818-0.009,4.208-0.051c-0.452-0.003-1.872-0.037-1.339-0.119c1.865,0.037,2.484-0.129,3.788-0.199
						c1.717,0.079-1.267,0.146-0.943,0.267c0.288,0.044,0.978,0.141,0.256,0.188c1.543,0.026,2.655-0.078,4.032-0.104l-0.038,0.034
						c1.923-0.014,3.975-0.165,5.589-0.095l-0.856-0.04c0.316-0.021,1.286-0.01,1.82-0.081c-0.058,0.057,1.196,0.108,0.683,0.156
						c0.855-0.183,4.372-0.111,5.331-0.284c0.514,0.046,0.103,0.12-0.053,0.162c-1.214-0.016-1.625-0.052-2.263,0.021
						c1.01-0.002,1.749,0.044,1.594,0.086c1.011-0.114,3.417-0.158,3.924-0.272c0.738,0.057,1.441,0.087,1.183,0.182
						c3.098-0.059-1.53-0.292,1.967-0.291c1.594,0.092-1.556,0.124,0.643,0.155l-0.406,0.015c1.588,0.244,1.114-0.174,2.913-0.166
						c0.24,0.133-1.253,0.095-0.012,0.19c1.646-0.033,2.368-0.23,4.014-0.188l-0.258,0.056c1.055,0.001,3.1,0.005,4.149,0.006
						c0.05,0.026-0.103,0.022-0.303,0.029c1.941,0.05,0.811-0.068,2.4,0.024l0.456-0.064c-0.798-0.046-2.342-0.111-3.351-0.035
						c1.009-0.076-1.581-0.168-1.081-0.281l-0.2,0.045c-2.635-0.195-6.031-0.219-9.375-0.293c-2.109,0.136-3.589-0.055-5.853,0.04
						c-0.353,0.155-0.424,0.031-2.367,0.062c1.029-0.019,0.122-0.118-0.528-0.139c-0.379,0.041-0.841,0.055-1.304,0.069
						c-0.392-0.053-2.842-0.178-3.738-0.073c-1.182-0.049,0.277-0.049,0.535-0.082c-0.481-0.08-0.963,0.062-1.356,0.009
						c0,0,0.019-0.017,0.142-0.025c-1.81,0.006-2.89-0.034-4.773-0.054c-0.155,0.153-1.851,0.058-2.689,0.112
						c0.272-0.049-1.06-0.057-1.594-0.086l-1.009,0.113c-0.999,0.096-1.389-0.068-2.68-0.016l0.312,0.027
						c-0.945,0.046-3.427-0.046-4.354-0.127C67.266,0.618,62.5,0.153,53.318,0.234c-0.597,0.046,0.437,0.077-0.031,0.146
						c-0.935,0.006-1.146,0.007-1.994,0.013c0.75,0.041,0.629-0.01,0.534,0.032l1.301-0.043c0.063,0.011-0.081,0.016,0.043,0.038
						c0.437-0.014,0.951-0.044,1.512-0.036c-0.805,0.039-1.03,0.152-2.131,0.109c0.084-0.016,0.227-0.02,0.516-0.03
						c-0.909-0.009-0.954,0.045-1.636,0.015c-0.834-0.025-0.63,0.01-0.737-0.04l-2.593-0.061c-1.293,0.135-2.887,0.006-3.305-0.006
						c0.282-0.101,1.717-0.031,2.354-0.13l-0.935-0.074l-0.056,0.081L44.83,0.226l0.075-0.015c-0.157,0.031-0.321,0.063-0.661,0.035
						c-0.058-0.011-0.188-0.033-0.04-0.038l-0.951,0.044c0.553-0.083-0.834-0.025-0.695-0.121c-3.098-0.048-3.941,0.129-6.667-0.002
						c0.443,0.045-0.864,0.152-1.703,0.135c-0.484-0.024-0.606-0.045-0.299-0.083L32.79,0.231c-1.377-0.15-2.721-0.053-4.739-0.104
						l0.104-0.042c-0.748,0.05-1.553,0.09-2.677,0.074l0.205-0.084c-1.374-0.06-1.049,0.178-2.566,0.124
						c0.008,0.091,0.964,0.138,1.112,0.224c-0.358-0.092-1.986-0.106-1.607-0.041c-1.512,0.038-1.048-0.002-1.178-0.024
						l-0.887,0.056c-1.062-0.004-0.34-0.12,0.052-0.171c-0.991,0.098-2.07,0.029-3.195,0.013l0.456-0.041l-1.479-0.016
						c-0.965,0.071-2.316,0.076-3.562,0.039l0.861-0.12c-0.875-0.063-0.45,0.042-0.682,0.062c-1.382,0.059-1.679-0.023-2.409-0.09
						C8.385,0.212,6.19-0.11,4.294,0.071z M110.237,40.784l-0.205-0.018C110.496,40.745,110.759,40.726,110.237,40.784z
						 M98.079,40.75c1.465-0.047,1,0.01,1.111,0.043c-1.441-0.033-2.244,0.005-3.519-0.034c0.205,0.024,0.244,0.057,0.31,0.076
						c-0.508-0.005-1.017-0.032-1.19-0.093C95.42,40.621,98.713,40.82,98.079,40.75z M120.906,36.281
						c0.008,0.053,0.018,0.111,0.027,0.172c0,0,0,0,0,0.008L120.906,36.281z M118.206,40.263c-0.103-0.026-0.282-0.04-0.5-0.05
						C117.84,40.245,117.969,40.272,118.206,40.263z M103.781,40.114c-0.333-0.05-1.093-0.035-1.646-0.023
						C102.394,40.095,102.858,40.101,103.781,40.114z M12.777,40.168c0.438-0.019,1.259-0.07,0.508-0.106
						c-0.36,0.043-1.057-0.031-1.36,0.034c-0.042-0.003-0.049-0.003-0.075-0.005C12.288,40.131,12.647,40.166,12.777,40.168z
						 M0.691,9.712c0.049,0.079,0.103,0.4,0.14,0.194C0.83,9.942,0.829,9.989,0.827,10.028c0.017-0.108,0.031-0.2,0.042-0.116
						c0.01-0.348,0.022-0.714,0.008-0.959C0.715,8.836,0.689,8.1,0.691,9.712z"/>
					<path fill="#D88F48" d="M1.354,24.002c-0.002-0.166-0.003-0.295-0.004-0.398C1.351,23.713,1.352,23.836,1.354,24.002z"/>
					<path fill="#D88F48" d="M0.875,9.024C0.866,8.993,0.85,9.404,0.831,9.906C0.851,9.804,0.868,9.559,0.875,9.024z"/>
					<path fill="#D88F48" d="M121.45,12.699l0.017,0.423l0.048-0.848c-0.054-1.415-0.124-1.486-0.205-1.834
						c0.076,1.268,0.038,2.044,0.06,3.672L121.45,12.699z"/>
					<path fill="#D88F48" d="M120.914,13.417c-0.021,0.142-0.075,0.497-0.081,0.709l0.049,0.21L120.914,13.417z"/>
					<path fill="#D88F48" d="M120.679,30.176l0.042-1.343C120.679,28.408,120.603,29.966,120.679,30.176z"/>
					<path fill="#D88F48" d="M121.527,24.215l-0.054-0.706c-0.043,0.634-0.038,1.485,0.021,1.625
						C121.462,24.286,121.527,24.923,121.527,24.215z"/>
					<path fill="#D88F48" d="M120.668,33.784c0.097,0.419-0.043,1.344,0.049,1.621C120.69,35.052,120.765,33.85,120.668,33.784z"/>
					<path fill="#D88F48" d="M121.587,32.841c0.091-0.426,0.01-1.132,0.032-1.982C121.62,31.566,121.523,32.557,121.587,32.841z"/>
					<path fill="#D88F48" d="M120.627,40.192c0.011-0.038,0.11-0.053,0.258-0.057c-0.003-0.126,0.002-0.275,0.009-0.441
						c0.021,0.125,0.053,0.226,0.064,0.422c-0.013-0.175-0.022-0.31-0.03-0.421c-0.006-0.163-0.011-0.292-0.016-0.414
						c-0.008-0.256-0.016-0.485-0.029-0.911c-0.022,0.416-0.048,0.927-0.069,1.328c-0.024,0.197-0.054,0.285-0.097,0.22l0.014,0.063
						C120.598,40.045,120.164,40.133,120.627,40.192z"/>
					<path fill="#D88F48" d="M121.598,34.886c0.027-0.708,0.091-1.133,0.085-1.981c-0.048,0.147-0.118,0.429-0.107,1.42
						l-0.081-0.354C121.437,34.891,121.603,33.611,121.598,34.886z"/>
					<path fill="#D88F48" d="M116.855,40.005l0.427,0.038c0.99-0.064,2.262-0.032,2.821-0.135
						C118.906,39.914,117.421,39.957,116.855,40.005z"/>
					<path fill="#D88F48" d="M121.449,38.357l0.112,0.134c0.016-0.989-0.038,0.072-0.064-0.282c0.016-0.282,0.026-0.707,0.005-0.914
						C121.519,38.421,121.411,37.368,121.449,38.357z"/>
					<path fill="#D88F48" d="M120.129,40.823l-1.267,0.048l0.99,0.124C121.455,40.951,119.884,40.924,120.129,40.823z"/>
					<path fill="#D88F48" d="M118.571,40.748l-0.142-0.022l-1.902,0.167C117.661,40.823,117.729,40.833,118.571,40.748z"/>
					<path fill="#D88F48" d="M95.519,40.015c-0.214,0.048,0.9,0.108,0.423,0.055C96.156,40.03,94.669,39.967,95.519,40.015z"/>
					<path fill="#D88F48" d="M100.064,40.918c-0.541-0.037-2.316,0.032-3.093,0.065C97.897,40.96,100.194,40.983,100.064,40.918z"/>
					<path fill="#D88F48" d="M96.655,40.996c0.063-0.002,0.18-0.007,0.316-0.013C96.831,40.989,96.73,40.993,96.655,40.996z"/>
					<path fill="#D88F48" d="M63.979,41.245c-0.083,0.001-0.166,0.005-0.236,0.013C63.824,41.253,63.895,41.25,63.979,41.245z"/>
					<path fill="#D88F48" d="M64.759,41.217c0.527,0.016,1.574-0.013,1.755-0.065c-0.83,0.024-1.563,0.04-2.535,0.093
						C64.344,41.239,64.791,41.275,64.759,41.217z"/>
					<path fill="#D88F48" d="M57.255,41.191c0.39-0.031,0.924-0.015,0.79-0.062C57.825,41.108,56.995,41.159,57.255,41.191z"/>
					<path fill="#D88F48" d="M6.705,39.783c-0.722-0.025-1.146-0.006-0.951,0.064C6.563,39.846,6.121,39.804,6.705,39.783z"/>
					<polygon fill="#D88F48" points="4.828,39.862 4.73,39.827 4.256,39.773 					"/>
					<path fill="#D88F48" d="M1.509,39.568c0.003,0.022,0.009,0.056,0.017,0.099l0.014,0.014l-0.007-0.015
						c-0.003-0.056-0.005-0.104-0.007-0.137C1.52,39.462,1.515,39.457,1.509,39.568z"/>
					<path fill="#D88F48" d="M1.544,39.69L1.54,39.681L1.544,39.69z"/>
					<path fill="#D88F48" d="M1.522,39.731l0.037-0.027c-0.005,0.001-0.01-0.005-0.015-0.014
						C1.547,39.698,1.542,39.709,1.522,39.731z"/>
					<path fill="#D88F48" d="M1.522,38.074l-0.107,0.949c0.053,0.986,0.055-1.123,0.169-0.151L1.522,38.074z"/>
					<path fill="#D88F48" d="M1.492,34.768c0.035-0.906-0.134-2.212-0.007-2.726c-0.066-2.566-0.211,0.592-0.26-2.343
						c-0.065,2.775,0.244,1.411,0.174,3.874C1.478,32.382,1.461,34.371,1.492,34.768z"/>
					<path fill="#D88F48" d="M1.279,35.205c0.063,0.147,0.069-1.003,0.027-1.362C1.298,34.178,1.209,34.755,1.279,35.205z"/>
					<polygon fill="#D88F48" points="1.435,29.752 1.484,28.968 1.443,28.762 					"/>
					<path fill="#D88F48" d="M1.46,26.776l0.073,0.764C1.505,27.289,1.511,26.144,1.46,26.776z"/>
					<path fill="#D88F48" d="M1.552,22.632c0.025-0.719-0.146-1.37-0.108,0.148l0.007-0.346C1.477,22.524,1.537,21.707,1.552,22.632
						z"/>
					<path fill="#D88F48" d="M1.285,13.044c-0.003,0.496,0.018,1.08,0.053,0.977l-0.034-1.356L1.285,13.044z"/>
					<path fill="#D88F48" d="M0.871,13.245c-0.103,0.456,0.009,1.272-0.025,2.173C0.866,14.395,0.88,14.517,0.871,13.245z"/>
					<path fill="#D88F48" d="M1.432,11.496c0.043,0.366,0.015,0.933,0.008,1.272C1.499,12.602,1.484,11.669,1.432,11.496z"/>
					<path fill="#D88F48" d="M1.396,9.333C1.438,8.89,1.454,9.43,1.483,9.096c0.046-0.951,0.041-1.95-0.017-2.49
						c-0.044,0.25-0.164,0.592-0.216,0.2C1.287,8.324,1.479,9.101,1.331,9.84l0.181,1.268C1.541,9.894,1.385,10.176,1.396,9.333z"/>
					<path fill="#D88F48" d="M1.054,12.401l0.061-0.813c-0.059,0.162-0.069-0.454-0.088-0.886
						C0.894,10.916,1.046,11.938,1.054,12.401z"/>
					<path fill="#D88F48" d="M1.317,1.398L1.316,1.366l0.283-0.015l0.812-0.015L1.85,1.33L1.594,1.338L1.495,1.347
						C1.435,1.353,1.375,1.358,1.302,1.353L1.317,1.398z"/>
					<polygon fill="#D88F48" points="1.792,1.41 1.837,1.448 3.156,1.377 					"/>
					<polygon fill="#D88F48" points="3.599,1.455 3.395,1.448 2.379,1.481 					"/>
					<path fill="#D88F48" d="M7.194,1.48L6.878,1.425C6.441,1.439,5.567,1.377,5.65,1.452C6.03,1.427,6.937,1.436,7.194,1.48z"/>
					<path fill="#D88F48" d="M19.107,0.068c-0.312,0.037-0.125,0.069,0.062,0.102l0.495-0.094
						C19.517,0.081,19.227,0.09,19.107,0.068z"/>
					<path fill="#D88F48" d="M21.189,0.222l1.28-0.108c-1.475-0.017-1.68,0.068-2.966,0.085c0.545,0.035,1.306-0.043,1.995-0.013
						L21.189,0.222z"/>
					<path fill="#D88F48" d="M46.822,0.304c-0.116,0.069,0.174,0.06-0.777,0.105c1.304-0.043,2.424-0.028,3.917-0.039
						c-0.253-0.043,0.861-0.119,0.287-0.101l-1.665,0.042l0.25-0.048C47.665,0.211,48.071,0.342,46.822,0.304z"/>
					<path fill="#D88F48" d="M113.795,1.04c-0.155,0.034,0.046,0.064,0.247,0.095C115.036,1.097,113.595,1.047,113.795,1.04z"/>
				</g>
			</g>
		</g>
	</g>
</g>
<g>
	<rect x="248.417" y="386.967" fill="none" width="118.826" height="24.025"/>
	<text transform="matrix(1 0 0 1 280.7759 395.4863)"><tspan x="0" y="0" fill="#D88F48" font-family="'SourceSansPro-Regular'" font-size="12">Disponible</tspan><tspan x="-5.394" y="14.4" fill="#D88F48" font-family="'SourceSansPro-Regular'" font-size="12">sous 10 jours</tspan></text>
</g>
<polygon fill-rule="evenodd" clip-rule="evenodd" fill="#D88F48" points="367.742,390.992 346.242,377.492 367.742,377.492 "/>
</svg>
